<svg width="24" height="24" viewBox="0 0 24 24" fill="none" xmlns="http://www.w3.org/2000/svg">
<g id="Icons">
<g id="Row">
<g id="Container">
<g id="calendar_today">
<path id="Vector" d="M17.0029 2.34473C17.1228 2.34473 17.2021 2.3801 17.2725 2.44922C17.3431 2.51855 17.375 2.59117 17.375 2.69824V3.84473H19.4463C19.7697 3.84473 20.0439 3.9579 20.293 4.20703H20.2939C20.5429 4.45595 20.6552 4.73047 20.6553 5.05371V20.4463C20.6553 20.7675 20.543 21.041 20.2939 21.2891C20.0451 21.5371 19.7703 21.6494 19.4463 21.6494H4.55371C4.23199 21.6494 3.95881 21.5371 3.71094 21.2891L3.62402 21.1953C3.43636 20.9725 3.35059 20.7279 3.35059 20.4463V5.05371C3.35065 4.72985 3.46292 4.45487 3.71094 4.20605H3.71191C3.95988 3.95718 4.23264 3.84476 4.55371 3.84473H6.625V2.69824C6.62503 2.6164 6.6434 2.55478 6.68164 2.5L6.72656 2.44727C6.79743 2.37689 6.87232 2.34473 6.98047 2.34473C7.09976 2.3448 7.17845 2.38004 7.24902 2.44922C7.31968 2.51855 7.35152 2.59117 7.35156 2.69824V3.84473H16.6484V2.69824C16.6485 2.61642 16.6667 2.55483 16.7051 2.5L16.75 2.44727C16.8205 2.37714 16.895 2.34481 17.0029 2.34473ZM4.05371 20.9463H19.9463V9.25H4.05371V20.9463ZM4.05371 8.75H19.9463V4.55371H4.05371V8.75Z" fill="#14201A" stroke="#14201A" style="fill:#14201A;fill:color(display-p3 0.0784 0.1255 0.1020);fill-opacity:1;stroke:#14201A;stroke:color(display-p3 0.0784 0.1255 0.1020);stroke-opacity:1;"/>
</g>
</g>
</g>
</g>
</svg>
