<svg width="24" height="24" viewBox="0 0 24 24" fill="none" xmlns="http://www.w3.org/2000/svg">
<g id="Icons">
<g id="Row">
<g id="Container">
<g id="keyboard_arrow_up">
<path id="Vector" d="M11.9996 8.7041C12.0935 8.7041 12.1695 8.73239 12.2496 8.8125L17.193 13.7568C17.275 13.8388 17.3014 13.9127 17.3014 14C17.3014 14.0872 17.2749 14.1612 17.193 14.2432C17.1149 14.3212 17.038 14.3516 16.9371 14.3516C16.8365 14.3515 16.7602 14.321 16.6823 14.2432L16.6813 14.2422L12.3522 9.93848L11.9987 9.58691L7.31799 14.2676C7.24025 14.3453 7.17402 14.3672 7.09338 14.3643C6.99912 14.3608 6.91772 14.3292 6.83167 14.2432C6.75355 14.165 6.72327 14.0882 6.72327 13.9873C6.72328 13.8864 6.75355 13.8096 6.83167 13.7314L11.7506 8.8125C11.8306 8.7325 11.906 8.70418 11.9996 8.7041Z" fill="#14201A" stroke="#14201A" style="fill:#14201A;fill:color(display-p3 0.0784 0.1255 0.1020);fill-opacity:1;stroke:#14201A;stroke:color(display-p3 0.0784 0.1255 0.1020);stroke-opacity:1;"/>
</g>
</g>
</g>
</g>
</svg>
