<svg width="24" height="24" viewBox="0 0 24 24" fill="none" xmlns="http://www.w3.org/2000/svg">
<g id="Icons">
<g id="Row">
<g id="Container">
<g id="keyboard_arrow_down">
<path id="Vector" d="M7.08716 9.02344C7.18798 9.02344 7.26496 9.05385 7.34302 9.13184L11.6458 13.459L11.9993 13.8145L16.6819 9.13184C16.7595 9.05424 16.826 9.03227 16.9065 9.03516C17.0008 9.0386 17.0822 9.07117 17.1682 9.15723C17.2463 9.23531 17.2766 9.31223 17.2766 9.41309C17.2765 9.51371 17.2461 9.59001 17.1682 9.66797L12.2493 14.5869C12.1951 14.6411 12.1524 14.667 12.1243 14.6787C12.0887 14.6935 12.0489 14.7021 12.0002 14.7021C11.9758 14.7021 11.9534 14.6993 11.9329 14.6953L11.8752 14.6787L11.8225 14.6484C11.8018 14.634 11.7781 14.6138 11.7512 14.5869L6.80688 9.64355C6.73305 9.56972 6.70686 9.50009 6.71021 9.40527C6.714 9.29797 6.75001 9.2141 6.83228 9.13184C6.9102 9.05403 6.98657 9.02351 7.08716 9.02344Z" fill="#14201A" stroke="#14201A" style="fill:#14201A;fill:color(display-p3 0.0784 0.1255 0.1020);fill-opacity:1;stroke:#14201A;stroke:color(display-p3 0.0784 0.1255 0.1020);stroke-opacity:1;"/>
</g>
</g>
</g>
</g>
</svg>
