<svg width="24" height="24" viewBox="0 0 24 24" fill="none" xmlns="http://www.w3.org/2000/svg">
<g id="Icons">
<g id="Row">
<g id="Container">
<g id="person">
<path id="Vector" d="M11.9989 13.9229C13.0091 13.9229 14.0074 14.0477 14.995 14.2979C15.8676 14.5189 16.7788 14.8269 17.7284 15.2227L18.1376 15.3975C18.6049 15.6053 18.9717 15.9062 19.2489 16.3018V16.3008C19.5133 16.6783 19.6551 17.1421 19.6552 17.7158V18.5244C19.6551 18.8592 19.5424 19.1335 19.3026 19.374C19.0644 19.6129 18.7884 19.7275 18.4462 19.7275H5.55359C5.21363 19.7275 4.93916 19.6137 4.70203 19.375C4.46315 19.1345 4.35047 18.8598 4.35046 18.5244V17.7158C4.35052 17.1454 4.4933 16.6821 4.75867 16.3027C5.04013 15.9001 5.39971 15.5959 5.84558 15.3867C6.94394 14.895 7.99415 14.5294 8.995 14.2861C9.99366 14.0434 10.995 13.9229 11.9989 13.9229ZM11.9969 14.6318C11.0197 14.6318 10.0663 14.7289 9.13757 14.9238C8.19432 15.1218 7.19324 15.484 6.1366 16.002H6.13562C5.81048 16.1618 5.55062 16.4068 5.35535 16.7188H5.35437C5.15836 17.0322 5.05359 17.3756 5.05359 17.7402V19.0244H18.9462V17.7402C18.9462 17.4158 18.8597 17.1098 18.6991 16.8281L18.6259 16.709C18.4239 16.4034 18.1633 16.1624 17.8427 16.0039L17.8378 16.001L17.4374 15.8145C16.5125 15.3962 15.6459 15.098 14.8397 14.9248C13.9298 14.7293 12.9819 14.6318 11.9969 14.6318ZM11.9989 4.59863C13.0271 4.59867 13.8316 4.92124 14.4569 5.54492H14.4579C15.0827 6.16805 15.4051 6.97149 15.4052 7.99902C15.4052 9.02689 15.0828 9.83061 14.4579 10.4531C13.8326 11.076 13.0273 11.3974 11.9989 11.3975C10.9704 11.3975 10.167 11.0753 9.5448 10.4531C8.92255 9.83076 8.60046 9.02739 8.60046 7.99902C8.60053 7.03508 8.88335 6.26849 9.43152 5.66309L9.5448 5.54395C10.167 4.92084 10.9706 4.59863 11.9989 4.59863ZM12.0009 5.30176C11.246 5.30184 10.5901 5.55307 10.0731 6.06836V6.06934C9.55609 6.58522 9.30365 7.24022 9.30359 7.99512C9.30359 8.75119 9.555 9.40783 10.0712 9.9248C10.5874 10.442 11.2434 10.6943 11.9989 10.6943C12.6595 10.6943 13.2443 10.5021 13.7264 10.1084L13.9266 9.92676C14.4438 9.41023 14.6962 8.75378 14.6962 7.99805C14.6961 7.24144 14.4445 6.58444 13.9276 6.06836H13.9266C13.4105 5.55332 12.7554 5.30176 12.0009 5.30176Z" fill="#14201A" stroke="#14201A" style="fill:#14201A;fill:color(display-p3 0.0784 0.1255 0.1020);fill-opacity:1;stroke:#14201A;stroke:color(display-p3 0.0784 0.1255 0.1020);stroke-opacity:1;"/>
</g>
</g>
</g>
</g>
</svg>
