<svg width="24" height="24" viewBox="0 0 24 24" fill="none" xmlns="http://www.w3.org/2000/svg">
<g id="Icons">
<g id="Row">
<g id="Container">
<g id="tooltip">
<path id="Vector" d="M3.55371 2.34448H20.4463C20.7889 2.34448 21.0647 2.45906 21.3027 2.69702C21.5407 2.93503 21.6552 3.21086 21.6553 3.55347V16.4373C21.6553 16.7722 21.5424 17.0465 21.3027 17.2869C21.0645 17.5258 20.7885 17.6404 20.4463 17.6404H14.3984L14.25 17.864L12.293 20.8025L12.29 20.8064C12.2686 20.8392 12.247 20.8662 12.2246 20.8875L12.1553 20.9373C12.1043 20.9652 12.055 20.9773 12 20.9773C11.9424 20.9773 11.892 20.9649 11.8418 20.9373C11.7964 20.9122 11.7527 20.874 11.7119 20.8103L11.708 20.8025L9.75098 17.864L9.60254 17.6404H3.55371C3.21375 17.6404 2.93928 17.5265 2.70215 17.2878C2.46341 17.0476 2.35059 16.7729 2.35059 16.4373V3.55347L2.35645 3.42847C2.38151 3.14224 2.4946 2.90432 2.70215 2.69604C2.9391 2.45837 3.21339 2.34451 3.55371 2.34448ZM3.04785 16.9373H9.97363L11.583 19.3669L12 19.9958L12.417 19.3669L14.0264 16.9373H20.9521V3.04761H3.04785V16.9373Z" fill="#14201A" stroke="#14201A" style="fill:#14201A;fill:color(display-p3 0.0784 0.1255 0.1020);fill-opacity:1;stroke:#14201A;stroke:color(display-p3 0.0784 0.1255 0.1020);stroke-opacity:1;"/>
</g>
</g>
</g>
</g>
</svg>
