<svg width="393" height="250" viewBox="0 0 393 250" fill="none" xmlns="http://www.w3.org/2000/svg">
<g clip-path="url(#clip0_293_3210)">
<rect width="393" height="250" fill="#141414" style="fill:#141414;fill:color(display-p3 0.0767 0.0767 0.0767);fill-opacity:1;"/>
<g style="mix-blend-mode:difference" clip-path="url(#clip1_293_3210)">
<rect width="393" height="248" transform="translate(0 1)" fill="url(#paint0_linear_293_3210)"/>
<g filter="url(#filter0_f_293_3210)">
<path d="M440.152 104.308C440.502 155.7 336.232 203.637 217.58 204.445C98.9281 205.254 -9.84529 146.101 -10.0097 121.964C-10.1742 97.8275 98.5408 148.395 217.193 147.587C335.845 146.779 440.098 96.3508 440.152 104.308Z" fill="#DADADA" style="fill:#DADADA;fill:color(display-p3 0.8563 0.8563 0.8563);fill-opacity:1;"/>
</g>
<g filter="url(#filter1_n_293_3210)">
<path d="M81.3133 78.5063C13.1805 78.5062 -38.9128 113.47 -38.9128 113.47V162.113H454.199V116.244C454.199 116.244 429.676 78.5063 376.516 78.5063C323.357 78.5063 324.576 104.159 233.719 109.776C142.862 115.393 149.446 78.5064 81.3133 78.5063Z" fill="#182E21" style="fill:#182E21;fill:color(display-p3 0.0955 0.1823 0.1296);fill-opacity:1;"/>
</g>
<g filter="url(#filter2_n_293_3210)">
<path d="M56.801 120.034C-11.3318 120.034 -63.4252 144.645 -63.4252 144.645V225.672L429.687 229.349V146.597C429.687 146.597 413.225 135.45 360.066 135.45C306.907 135.45 283.587 148.078 192.731 152.032C101.874 155.986 124.934 120.034 56.801 120.034Z" fill="#1C341E" style="fill:#1C341E;fill:color(display-p3 0.1095 0.2055 0.1187);fill-opacity:1;"/>
</g>
<g filter="url(#filter3_f_293_3210)">
<circle cx="238.585" cy="209.218" r="9.85193" fill="#AC7119" style="fill:#AC7119;fill:color(display-p3 0.6731 0.4435 0.0990);fill-opacity:1;"/>
</g>
<ellipse cx="238.421" cy="208.714" rx="1.14137" ry="1.18057" fill="#EFDE60" style="fill:#EFDE60;fill:color(display-p3 0.9373 0.8718 0.3765);fill-opacity:1;"/>
<g filter="url(#filter4_f_293_3210)">
<circle cx="119.037" cy="178.102" r="10.9273" fill="#AC7119" style="fill:#AC7119;fill:color(display-p3 0.6731 0.4435 0.0990);fill-opacity:1;"/>
</g>
<ellipse cx="118.855" cy="177.543" rx="1.26595" ry="1.30943" fill="#EFDE60" style="fill:#EFDE60;fill:color(display-p3 0.9373 0.8718 0.3765);fill-opacity:1;"/>
<g filter="url(#filter5_dn_293_3210)">
<path d="M107.031 178.102C41.0279 178.102 -9.43726 218.446 -9.43726 218.446V278.575H468.262V221.646C468.262 221.646 444.505 178.102 393.007 178.102C341.51 178.102 342.445 205.711 254.428 212.193C166.411 218.674 173.034 178.103 107.031 178.102Z" fill="#283926" style="fill:#283926;fill:color(display-p3 0.1575 0.2224 0.1472);fill-opacity:1;"/>
</g>
<path d="M53.4712 12.6302L53.6726 13.25H54.3243L53.797 13.6331L53.9984 14.2529L53.4712 13.8698L52.944 14.2529L53.1453 13.6331L52.6181 13.25H53.2698L53.4712 12.6302Z" fill="#D9D9D9" style="fill:#D9D9D9;fill:color(display-p3 0.8510 0.8510 0.8510);fill-opacity:1;"/>
<path d="M15.2007 20.2848L15.4021 20.9046H16.0538L15.5265 21.2876L15.7279 21.9074L15.2007 21.5244L14.6735 21.9074L14.8748 21.2876L14.3476 20.9046H14.9993L15.2007 20.2848Z" fill="#D9D9D9" style="fill:#D9D9D9;fill:color(display-p3 0.8510 0.8510 0.8510);fill-opacity:1;"/>
<path d="M245.717 12.0494L245.918 12.6692H246.57L246.043 13.0523L246.244 13.6721L245.717 13.289L245.19 13.6721L245.391 13.0523L244.864 12.6692H245.516L245.717 12.0494Z" fill="#D9D9D9" style="fill:#D9D9D9;fill:color(display-p3 0.8510 0.8510 0.8510);fill-opacity:1;"/>
<path d="M148.847 10.4092L149.049 11.029H149.7L149.173 11.412L149.374 12.0318L148.847 11.6488L148.32 12.0318L148.521 11.412L147.994 11.029H148.646L148.847 10.4092Z" fill="#D9D9D9" style="fill:#D9D9D9;fill:color(display-p3 0.8510 0.8510 0.8510);fill-opacity:1;"/>
<path d="M341.093 9.82837L341.294 10.4482H341.946L341.419 10.8312L341.62 11.451L341.093 11.068L340.566 11.451L340.767 10.8312L340.24 10.4482H340.892L341.093 9.82837Z" fill="#D9D9D9" style="fill:#D9D9D9;fill:color(display-p3 0.8510 0.8510 0.8510);fill-opacity:1;"/>
<path d="M99.7871 34.5426L99.9885 35.1624H100.64L100.113 35.5454L100.314 36.1652L99.7871 35.7822L99.2599 36.1652L99.4613 35.5454L98.934 35.1624H99.5857L99.7871 34.5426Z" fill="#D9D9D9" style="fill:#D9D9D9;fill:color(display-p3 0.8510 0.8510 0.8510);fill-opacity:1;"/>
<path d="M61.5166 42.1971L61.718 42.8169H62.3697L61.8424 43.2L62.0438 43.8198L61.5166 43.4367L60.9894 43.8198L61.1908 43.2L60.6635 42.8169H61.3152L61.5166 42.1971Z" fill="#D9D9D9" style="fill:#D9D9D9;fill:color(display-p3 0.8510 0.8510 0.8510);fill-opacity:1;"/>
<path d="M292.033 33.9618L292.234 34.5816H292.886L292.359 34.9646L292.56 35.5844L292.033 35.2014L291.506 35.5844L291.707 34.9646L291.18 34.5816H291.832L292.033 33.9618Z" fill="#D9D9D9" style="fill:#D9D9D9;fill:color(display-p3 0.8510 0.8510 0.8510);fill-opacity:1;"/>
<path d="M195.163 32.3215L195.364 32.9413H196.016L195.489 33.3244L195.69 33.9442L195.163 33.5611L194.636 33.9442L194.837 33.3244L194.31 32.9413H194.962L195.163 32.3215Z" fill="#D9D9D9" style="fill:#D9D9D9;fill:color(display-p3 0.8510 0.8510 0.8510);fill-opacity:1;"/>
<path d="M94.9446 10.8362L95.146 11.456H95.7977L95.2704 11.839L95.4718 12.4588L94.9446 12.0758L94.4174 12.4588L94.6187 11.839L94.0915 11.456H94.7432L94.9446 10.8362Z" fill="#D9D9D9" style="fill:#D9D9D9;fill:color(display-p3 0.8510 0.8510 0.8510);fill-opacity:1;"/>
<g filter="url(#filter6_f_293_3210)">
<path d="M56.6741 18.4907L56.8755 19.1105H57.5271L56.9999 19.4936L57.2013 20.1134L56.6741 19.7303L56.1468 20.1134L56.3482 19.4936L55.821 19.1105H56.4727L56.6741 18.4907Z" fill="#D9D9D9" style="fill:#D9D9D9;fill:color(display-p3 0.8510 0.8510 0.8510);fill-opacity:1;"/>
</g>
<path d="M287.19 10.2554L287.392 10.8752H288.044L287.516 11.2582L287.718 11.878L287.19 11.495L286.663 11.878L286.865 11.2582L286.337 10.8752H286.989L287.19 10.2554Z" fill="#D9D9D9" style="fill:#D9D9D9;fill:color(display-p3 0.8510 0.8510 0.8510);fill-opacity:1;"/>
<path d="M190.321 8.61511L190.522 9.23491H191.174L190.646 9.61796L190.848 10.2378L190.321 9.8547L189.793 10.2378L189.995 9.61796L189.467 9.23491H190.119L190.321 8.61511Z" fill="#D9D9D9" style="fill:#D9D9D9;fill:color(display-p3 0.8510 0.8510 0.8510);fill-opacity:1;"/>
<path d="M141.26 32.7485L141.462 33.3683H142.113L141.586 33.7514L141.787 34.3712L141.26 33.9881L140.733 34.3712L140.934 33.7514L140.407 33.3683H141.059L141.26 32.7485Z" fill="#D9D9D9" style="fill:#D9D9D9;fill:color(display-p3 0.8510 0.8510 0.8510);fill-opacity:1;"/>
<path d="M333.506 32.1677L333.707 32.7875H334.359L333.832 33.1706L334.033 33.7904L333.506 33.4073L332.979 33.7904L333.18 33.1706L332.653 32.7875H333.305L333.506 32.1677Z" fill="#D9D9D9" style="fill:#D9D9D9;fill:color(display-p3 0.8510 0.8510 0.8510);fill-opacity:1;"/>
<path d="M236.636 30.5275L236.838 31.1473H237.489L236.962 31.5303L237.163 32.1501L236.636 31.7671L236.109 32.1501L236.31 31.5303L235.783 31.1473H236.435L236.636 30.5275Z" fill="#D9D9D9" style="fill:#D9D9D9;fill:color(display-p3 0.8510 0.8510 0.8510);fill-opacity:1;"/>
<path d="M60.1611 24.5134L60.3625 25.1332H61.0142L60.487 25.5163L60.6884 26.1361L60.1611 25.753L59.6339 26.1361L59.8353 25.5163L59.3081 25.1332H59.9597L60.1611 24.5134Z" fill="#D9D9D9" style="fill:#D9D9D9;fill:color(display-p3 0.8510 0.8510 0.8510);fill-opacity:1;"/>
<path d="M21.8906 32.168L22.092 32.7878H22.7437L22.2165 33.1708L22.4179 33.7906L21.8906 33.4076L21.3634 33.7906L21.5648 33.1708L21.0376 32.7878H21.6892L21.8906 32.168Z" fill="#D9D9D9" style="fill:#D9D9D9;fill:color(display-p3 0.8510 0.8510 0.8510);fill-opacity:1;"/>
<path d="M252.407 23.9326L252.608 24.5524H253.26L252.733 24.9355L252.934 25.5553L252.407 25.1722L251.88 25.5553L252.081 24.9355L251.554 24.5524H252.206L252.407 23.9326Z" fill="#D9D9D9" style="fill:#D9D9D9;fill:color(display-p3 0.8510 0.8510 0.8510);fill-opacity:1;"/>
<path d="M155.537 22.2924L155.738 22.9122H156.39L155.863 23.2952L156.064 23.915L155.537 23.5319L155.01 23.915L155.211 23.2952L154.684 22.9122H155.336L155.537 22.2924Z" fill="#D9D9D9" style="fill:#D9D9D9;fill:color(display-p3 0.8510 0.8510 0.8510);fill-opacity:1;"/>
<path d="M347.783 21.7115L347.984 22.3313H348.636L348.109 22.7144L348.31 23.3342L347.783 22.9511L347.256 23.3342L347.457 22.7144L346.93 22.3313H347.582L347.783 21.7115Z" fill="#D9D9D9" style="fill:#D9D9D9;fill:color(display-p3 0.8510 0.8510 0.8510);fill-opacity:1;"/>
<path d="M106.477 46.4258L106.678 47.0456H107.33L106.803 47.4286L107.004 48.0484L106.477 47.6654L105.95 48.0484L106.151 47.4286L105.624 47.0456H106.276L106.477 46.4258Z" fill="#D9D9D9" style="fill:#D9D9D9;fill:color(display-p3 0.8510 0.8510 0.8510);fill-opacity:1;"/>
<path d="M68.2065 54.0803L68.4079 54.7001H69.0596L68.5324 55.0832L68.7338 55.703L68.2065 55.3199L67.6793 55.703L67.8807 55.0832L67.3535 54.7001H68.0052L68.2065 54.0803Z" fill="#D9D9D9" style="fill:#D9D9D9;fill:color(display-p3 0.8510 0.8510 0.8510);fill-opacity:1;"/>
<path d="M298.723 45.845L298.924 46.4648H299.576L299.049 46.8478L299.25 47.4676L298.723 47.0846L298.196 47.4676L298.397 46.8478L297.87 46.4648H298.522L298.723 45.845Z" fill="#D9D9D9" style="fill:#D9D9D9;fill:color(display-p3 0.8510 0.8510 0.8510);fill-opacity:1;"/>
<path d="M201.853 44.2047L202.054 44.8245H202.706L202.179 45.2076L202.38 45.8274L201.853 45.4443L201.326 45.8274L201.527 45.2076L201 44.8245H201.652L201.853 44.2047Z" fill="#D9D9D9" style="fill:#D9D9D9;fill:color(display-p3 0.8510 0.8510 0.8510);fill-opacity:1;"/>
<g filter="url(#filter7_f_293_3210)">
<path d="M200.059 77.0426L200.26 77.6624H200.912L200.385 78.0454L200.586 78.6652L200.059 78.2822L199.532 78.6652L199.733 78.0454L199.206 77.6624H199.858L200.059 77.0426Z" fill="#D9D9D9" style="fill:#D9D9D9;fill:color(display-p3 0.8510 0.8510 0.8510);fill-opacity:1;"/>
</g>
<path d="M101.635 22.7195L101.836 23.3393H102.488L101.96 23.7223L102.162 24.3421L101.635 23.9591L101.107 24.3421L101.309 23.7223L100.781 23.3393H101.433L101.635 22.7195Z" fill="#D9D9D9" style="fill:#D9D9D9;fill:color(display-p3 0.8510 0.8510 0.8510);fill-opacity:1;"/>
<path d="M63.364 30.374L63.5654 30.9938H64.2171L63.6899 31.3769L63.8912 31.9967L63.364 31.6136L62.8368 31.9967L63.0382 31.3769L62.5109 30.9938H63.1626L63.364 30.374Z" fill="#D9D9D9" style="fill:#D9D9D9;fill:color(display-p3 0.8510 0.8510 0.8510);fill-opacity:1;"/>
<path d="M293.88 22.1387L294.082 22.7585H294.733L294.206 23.1415L294.408 23.7613L293.88 23.3783L293.353 23.7613L293.555 23.1415L293.027 22.7585H293.679L293.88 22.1387Z" fill="#D9D9D9" style="fill:#D9D9D9;fill:color(display-p3 0.8510 0.8510 0.8510);fill-opacity:1;"/>
<g filter="url(#filter8_f_293_3210)">
<path d="M197.01 20.4984L197.212 21.1182H197.864L197.336 21.5013L197.538 22.1211L197.01 21.738L196.483 22.1211L196.685 21.5013L196.157 21.1182H196.809L197.01 20.4984Z" fill="#D9D9D9" style="fill:#D9D9D9;fill:color(display-p3 0.8510 0.8510 0.8510);fill-opacity:1;"/>
</g>
<g filter="url(#filter9_f_293_3210)">
<path d="M147.95 44.6318L148.152 45.2516H148.803L148.276 45.6347L148.477 46.2545L147.95 45.8714L147.423 46.2545L147.624 45.6347L147.097 45.2516H147.749L147.95 44.6318Z" fill="#D9D9D9" style="fill:#D9D9D9;fill:color(display-p3 0.8510 0.8510 0.8510);fill-opacity:1;"/>
</g>
<path d="M340.196 44.051L340.397 44.6708H341.049L340.522 45.0539L340.723 45.6737L340.196 45.2906L339.669 45.6737L339.87 45.0539L339.343 44.6708H339.995L340.196 44.051Z" fill="#D9D9D9" style="fill:#D9D9D9;fill:color(display-p3 0.8510 0.8510 0.8510);fill-opacity:1;"/>
<g filter="url(#filter10_f_293_3210)">
<path d="M243.326 42.4108L243.528 43.0306H244.179L243.652 43.4136L243.853 44.0334L243.326 43.6504L242.799 44.0334L243 43.4136L242.473 43.0306H243.125L243.326 42.4108Z" fill="#D9D9D9" style="fill:#D9D9D9;fill:color(display-p3 0.8510 0.8510 0.8510);fill-opacity:1;"/>
</g>
<path d="M241.532 75.2487L241.734 75.8685H242.385L241.858 76.2515L242.059 76.8713L241.532 76.4882L241.005 76.8713L241.206 76.2515L240.679 75.8685H241.331L241.532 75.2487Z" fill="#D9D9D9" style="fill:#D9D9D9;fill:color(display-p3 0.8510 0.8510 0.8510);fill-opacity:1;"/>
<path d="M68.5598 19.9685L68.7612 20.5883H69.4129L68.8857 20.9714L69.087 21.5911L68.5598 21.2081L68.0326 21.5911L68.234 20.9714L67.7067 20.5883H68.3584L68.5598 19.9685Z" fill="#D9D9D9" style="fill:#D9D9D9;fill:color(display-p3 0.8510 0.8510 0.8510);fill-opacity:1;"/>
<path d="M30.2893 27.623L30.4907 28.2428H31.1424L30.6152 28.6259L30.8165 29.2457L30.2893 28.8626L29.7621 29.2457L29.9635 28.6259L29.4362 28.2428H30.0879L30.2893 27.623Z" fill="#D9D9D9" style="fill:#D9D9D9;fill:color(display-p3 0.8510 0.8510 0.8510);fill-opacity:1;"/>
<path d="M260.806 19.3877L261.007 20.0075H261.659L261.132 20.3905L261.333 21.0103L260.806 20.6273L260.278 21.0103L260.48 20.3905L259.953 20.0075H260.604L260.806 19.3877Z" fill="#D9D9D9" style="fill:#D9D9D9;fill:color(display-p3 0.8510 0.8510 0.8510);fill-opacity:1;"/>
<path d="M163.936 17.7474L164.137 18.3672H164.789L164.262 18.7503L164.463 19.3701L163.936 18.987L163.409 19.3701L163.61 18.7503L163.083 18.3672H163.734L163.936 17.7474Z" fill="#D9D9D9" style="fill:#D9D9D9;fill:color(display-p3 0.8510 0.8510 0.8510);fill-opacity:1;"/>
<path d="M356.182 17.1666L356.383 17.7864H357.035L356.507 18.1695L356.709 18.7893L356.182 18.4062L355.654 18.7893L355.856 18.1695L355.329 17.7864H355.98L356.182 17.1666Z" fill="#D9D9D9" style="fill:#D9D9D9;fill:color(display-p3 0.8510 0.8510 0.8510);fill-opacity:1;"/>
<path d="M114.875 41.8809L115.077 42.5007H115.729L115.201 42.8837L115.403 43.5035L114.875 43.1204L114.348 43.5035L114.55 42.8837L114.022 42.5007H114.674L114.875 41.8809Z" fill="#D9D9D9" style="fill:#D9D9D9;fill:color(display-p3 0.8510 0.8510 0.8510);fill-opacity:1;"/>
<path d="M76.605 49.5354L76.8064 50.1552H77.4581L76.9308 50.5382L77.1322 51.158L76.605 50.775L76.0778 51.158L76.2791 50.5382L75.7519 50.1552H76.4036L76.605 49.5354Z" fill="#D9D9D9" style="fill:#D9D9D9;fill:color(display-p3 0.8510 0.8510 0.8510);fill-opacity:1;"/>
<path d="M307.121 41.3L307.323 41.9198H307.974L307.447 42.3029L307.649 42.9227L307.121 42.5396L306.594 42.9227L306.795 42.3029L306.268 41.9198H306.92L307.121 41.3Z" fill="#D9D9D9" style="fill:#D9D9D9;fill:color(display-p3 0.8510 0.8510 0.8510);fill-opacity:1;"/>
<path d="M210.251 39.6598L210.453 40.2796H211.105L210.577 40.6626L210.779 41.2824L210.251 40.8994L209.724 41.2824L209.926 40.6626L209.398 40.2796H210.05L210.251 39.6598Z" fill="#D9D9D9" style="fill:#D9D9D9;fill:color(display-p3 0.8510 0.8510 0.8510);fill-opacity:1;"/>
<path d="M110.033 18.1746L110.235 18.7944H110.886L110.359 19.1774L110.56 19.7972L110.033 19.4141L109.506 19.7972L109.707 19.1774L109.18 18.7944H109.832L110.033 18.1746Z" fill="#D9D9D9" style="fill:#D9D9D9;fill:color(display-p3 0.8510 0.8510 0.8510);fill-opacity:1;"/>
<path d="M71.7627 25.8291L71.9641 26.4489H72.6158L72.0885 26.8319L72.2899 27.4517L71.7627 27.0687L71.2355 27.4517L71.4369 26.8319L70.9096 26.4489H71.5613L71.7627 25.8291Z" fill="#D9D9D9" style="fill:#D9D9D9;fill:color(display-p3 0.8510 0.8510 0.8510);fill-opacity:1;"/>
<g filter="url(#filter11_f_293_3210)">
<path d="M302.279 17.5938L302.48 18.2135H303.132L302.605 18.5966L302.806 19.2164L302.279 18.8333L301.752 19.2164L301.953 18.5966L301.426 18.2135H302.078L302.279 17.5938Z" fill="#D9D9D9" style="fill:#D9D9D9;fill:color(display-p3 0.8510 0.8510 0.8510);fill-opacity:1;"/>
</g>
<path d="M205.409 15.9535L205.611 16.5733H206.262L205.735 16.9563L205.936 17.5761L205.409 17.1931L204.882 17.5761L205.083 16.9563L204.556 16.5733H205.208L205.409 15.9535Z" fill="#D9D9D9" style="fill:#D9D9D9;fill:color(display-p3 0.8510 0.8510 0.8510);fill-opacity:1;"/>
<path d="M156.349 40.0869L156.551 40.7067H157.202L156.675 41.0898L156.876 41.7096L156.349 41.3265L155.822 41.7096L156.023 41.0898L155.496 40.7067H156.148L156.349 40.0869Z" fill="#D9D9D9" style="fill:#D9D9D9;fill:color(display-p3 0.8510 0.8510 0.8510);fill-opacity:1;"/>
<path d="M348.595 39.5061L348.796 40.1259H349.448L348.921 40.5089L349.122 41.1287L348.595 40.7457L348.068 41.1287L348.269 40.5089L347.742 40.1259H348.394L348.595 39.5061Z" fill="#D9D9D9" style="fill:#D9D9D9;fill:color(display-p3 0.8510 0.8510 0.8510);fill-opacity:1;"/>
<path d="M251.725 37.8658L251.926 38.4856H252.578L252.051 38.8687L252.252 39.4885L251.725 39.1054L251.198 39.4885L251.399 38.8687L250.872 38.4856H251.524L251.725 37.8658Z" fill="#D9D9D9" style="fill:#D9D9D9;fill:color(display-p3 0.8510 0.8510 0.8510);fill-opacity:1;"/>
<g filter="url(#filter12_f_293_3210)">
<path d="M75.2498 31.8516L75.4511 32.4714H76.1028L75.5756 32.8544L75.777 33.4742L75.2498 33.0911L74.7225 33.4742L74.9239 32.8544L74.3967 32.4714H75.0484L75.2498 31.8516Z" fill="#D9D9D9" style="fill:#D9D9D9;fill:color(display-p3 0.8510 0.8510 0.8510);fill-opacity:1;"/>
</g>
<g filter="url(#filter13_f_293_3210)">
<path d="M36.9792 39.5061L37.1806 40.1259H37.8323L37.3051 40.5089L37.5065 41.1287L36.9792 40.7457L36.452 41.1287L36.6534 40.5089L36.1262 40.1259H36.7779L36.9792 39.5061Z" fill="#D9D9D9" style="fill:#D9D9D9;fill:color(display-p3 0.8510 0.8510 0.8510);fill-opacity:1;"/>
</g>
<path d="M267.496 31.2708L267.697 31.8905H268.349L267.821 32.2736L268.023 32.8934L267.496 32.5103L266.968 32.8934L267.17 32.2736L266.643 31.8905H267.294L267.496 31.2708Z" fill="#D9D9D9" style="fill:#D9D9D9;fill:color(display-p3 0.8510 0.8510 0.8510);fill-opacity:1;"/>
<path d="M170.626 29.6305L170.827 30.2503H171.479L170.952 30.6333L171.153 31.2531L170.626 30.8701L170.099 31.2531L170.3 30.6333L169.773 30.2503H170.424L170.626 29.6305Z" fill="#D9D9D9" style="fill:#D9D9D9;fill:color(display-p3 0.8510 0.8510 0.8510);fill-opacity:1;"/>
<g filter="url(#filter14_f_293_3210)">
<path d="M362.872 29.0497L363.073 29.6695H363.725L363.197 30.0525L363.399 30.6723L362.872 30.2893L362.344 30.6723L362.546 30.0525L362.019 29.6695H362.67L362.872 29.0497Z" fill="#D9D9D9" style="fill:#D9D9D9;fill:color(display-p3 0.8510 0.8510 0.8510);fill-opacity:1;"/>
</g>
<path d="M121.565 53.7639L121.767 54.3837H122.419L121.891 54.7668L122.093 55.3866L121.565 55.0035L121.038 55.3866L121.24 54.7668L120.712 54.3837H121.364L121.565 53.7639Z" fill="#D9D9D9" style="fill:#D9D9D9;fill:color(display-p3 0.8510 0.8510 0.8510);fill-opacity:1;"/>
<path d="M313.811 53.1831L314.013 53.8029H314.664L314.137 54.186L314.339 54.8057L313.811 54.4227L313.284 54.8057L313.485 54.186L312.958 53.8029H313.61L313.811 53.1831Z" fill="#D9D9D9" style="fill:#D9D9D9;fill:color(display-p3 0.8510 0.8510 0.8510);fill-opacity:1;"/>
<path d="M216.941 51.5428L217.143 52.1626H217.794L217.267 52.5457L217.469 53.1655L216.941 52.7824L216.414 53.1655L216.616 52.5457L216.088 52.1626H216.74L216.941 51.5428Z" fill="#D9D9D9" style="fill:#D9D9D9;fill:color(display-p3 0.8510 0.8510 0.8510);fill-opacity:1;"/>
<path d="M215.147 84.3807L215.349 85.0005H216.001L215.473 85.3836L215.675 86.0034L215.147 85.6203L214.62 86.0034L214.822 85.3836L214.294 85.0005H214.946L215.147 84.3807Z" fill="#D9D9D9" style="fill:#D9D9D9;fill:color(display-p3 0.8510 0.8510 0.8510);fill-opacity:1;"/>
<g filter="url(#filter15_f_293_3210)">
<path d="M116.723 30.0576L116.925 30.6774H117.576L117.049 31.0605L117.25 31.6803L116.723 31.2972L116.196 31.6803L116.397 31.0605L115.87 30.6774H116.522L116.723 30.0576Z" fill="#D9D9D9" style="fill:#D9D9D9;fill:color(display-p3 0.8510 0.8510 0.8510);fill-opacity:1;"/>
</g>
<path d="M78.4526 37.7122L78.654 38.332H79.3057L78.7785 38.715L78.9799 39.3348L78.4526 38.9517L77.9254 39.3348L78.1268 38.715L77.5996 38.332H78.2513L78.4526 37.7122Z" fill="#D9D9D9" style="fill:#D9D9D9;fill:color(display-p3 0.8510 0.8510 0.8510);fill-opacity:1;"/>
<path d="M308.969 29.4768L309.17 30.0966H309.822L309.295 30.4797L309.496 31.0994L308.969 30.7164L308.442 31.0994L308.643 30.4797L308.116 30.0966H308.768L308.969 29.4768Z" fill="#D9D9D9" style="fill:#D9D9D9;fill:color(display-p3 0.8510 0.8510 0.8510);fill-opacity:1;"/>
<g filter="url(#filter16_f_293_3210)">
<path d="M212.099 27.8365L212.301 28.4563H212.952L212.425 28.8394L212.626 29.4592L212.099 29.0761L211.572 29.4592L211.773 28.8394L211.246 28.4563H211.898L212.099 27.8365Z" fill="#D9D9D9" style="fill:#D9D9D9;fill:color(display-p3 0.8510 0.8510 0.8510);fill-opacity:1;"/>
</g>
<path d="M163.039 51.97L163.24 52.5898H163.892L163.365 52.9728L163.566 53.5926L163.039 53.2096L162.512 53.5926L162.713 52.9728L162.186 52.5898H162.838L163.039 51.97Z" fill="#D9D9D9" style="fill:#D9D9D9;fill:color(display-p3 0.8510 0.8510 0.8510);fill-opacity:1;"/>
<path d="M355.285 51.3892L355.486 52.009H356.138L355.611 52.392L355.812 53.0118L355.285 52.6287L354.758 53.0118L354.959 52.392L354.432 52.009H355.084L355.285 51.3892Z" fill="#D9D9D9" style="fill:#D9D9D9;fill:color(display-p3 0.8510 0.8510 0.8510);fill-opacity:1;"/>
<path d="M258.415 49.7489L258.616 50.3687H259.268L258.741 50.7517L258.942 51.3715L258.415 50.9885L257.888 51.3715L258.089 50.7517L257.562 50.3687H258.214L258.415 49.7489Z" fill="#D9D9D9" style="fill:#D9D9D9;fill:color(display-p3 0.8510 0.8510 0.8510);fill-opacity:1;"/>
<path d="M42.1753 27.3068L42.3767 27.9266H43.0284L42.5011 28.3096L42.7025 28.9294L42.1753 28.5463L41.6481 28.9294L41.8494 28.3096L41.3222 27.9266H41.9739L42.1753 27.3068Z" fill="#D9D9D9" style="fill:#D9D9D9;fill:color(display-p3 0.8510 0.8510 0.8510);fill-opacity:1;"/>
<path d="M3.90479 34.9613L4.10617 35.5811H4.75786L4.23063 35.9641L4.43201 36.5839L3.90479 36.2009L3.37756 36.5839L3.57894 35.9641L3.05171 35.5811H3.7034L3.90479 34.9613Z" fill="#D9D9D9" style="fill:#D9D9D9;fill:color(display-p3 0.8510 0.8510 0.8510);fill-opacity:1;"/>
<path d="M234.421 26.726L234.623 27.3457H235.274L234.747 27.7288L234.948 28.3486L234.421 27.9655L233.894 28.3486L234.095 27.7288L233.568 27.3457H234.22L234.421 26.726Z" fill="#D9D9D9" style="fill:#D9D9D9;fill:color(display-p3 0.8510 0.8510 0.8510);fill-opacity:1;"/>
<path d="M137.551 25.0857L137.753 25.7055H138.404L137.877 26.0885L138.078 26.7083L137.551 26.3253L137.024 26.7083L137.225 26.0885L136.698 25.7055H137.35L137.551 25.0857Z" fill="#D9D9D9" style="fill:#D9D9D9;fill:color(display-p3 0.8510 0.8510 0.8510);fill-opacity:1;"/>
<path d="M329.797 24.5049L329.999 25.1247H330.65L330.123 25.5077L330.324 26.1275L329.797 25.7445L329.27 26.1275L329.471 25.5077L328.944 25.1247H329.596L329.797 24.5049Z" fill="#D9D9D9" style="fill:#D9D9D9;fill:color(display-p3 0.8510 0.8510 0.8510);fill-opacity:1;"/>
<path d="M88.4912 49.2191L88.6926 49.8389H89.3443L88.8171 50.222L89.0184 50.8418L88.4912 50.4587L87.964 50.8418L88.1654 50.222L87.6381 49.8389H88.2898L88.4912 49.2191Z" fill="#D9D9D9" style="fill:#D9D9D9;fill:color(display-p3 0.8510 0.8510 0.8510);fill-opacity:1;"/>
<g filter="url(#filter17_f_293_3210)">
<path d="M50.2207 56.8737L50.4221 57.4935H51.0738L50.5465 57.8765L50.7479 58.4963L50.2207 58.1132L49.6935 58.4963L49.8949 57.8765L49.3676 57.4935H50.0193L50.2207 56.8737Z" fill="#D9D9D9" style="fill:#D9D9D9;fill:color(display-p3 0.8510 0.8510 0.8510);fill-opacity:1;"/>
</g>
<path d="M280.737 48.6383L280.938 49.2581H281.59L281.063 49.6412L281.264 50.2609L280.737 49.8779L280.21 50.2609L280.411 49.6412L279.884 49.2581H280.536L280.737 48.6383Z" fill="#D9D9D9" style="fill:#D9D9D9;fill:color(display-p3 0.8510 0.8510 0.8510);fill-opacity:1;"/>
<path d="M183.867 46.998L184.069 47.6178H184.72L184.193 48.0009L184.394 48.6207L183.867 48.2376L183.34 48.6207L183.541 48.0009L183.014 47.6178H183.666L183.867 46.998Z" fill="#D9D9D9" style="fill:#D9D9D9;fill:color(display-p3 0.8510 0.8510 0.8510);fill-opacity:1;"/>
<path d="M83.6487 25.5127L83.8501 26.1325H84.5018L83.9745 26.5155L84.1759 27.1353L83.6487 26.7523L83.1215 27.1353L83.3228 26.5155L82.7956 26.1325H83.4473L83.6487 25.5127Z" fill="#D9D9D9" style="fill:#D9D9D9;fill:color(display-p3 0.8510 0.8510 0.8510);fill-opacity:1;"/>
<path d="M45.3782 33.1672L45.5796 33.787H46.2312L45.704 34.1701L45.9054 34.7899L45.3782 34.4068L44.8509 34.7899L45.0523 34.1701L44.5251 33.787H45.1768L45.3782 33.1672Z" fill="#D9D9D9" style="fill:#D9D9D9;fill:color(display-p3 0.8510 0.8510 0.8510);fill-opacity:1;"/>
<path d="M275.895 24.9319L276.096 25.5517H276.748L276.22 25.9347L276.422 26.5545L275.895 26.1715L275.367 26.5545L275.569 25.9347L275.041 25.5517H275.693L275.895 24.9319Z" fill="#D9D9D9" style="fill:#D9D9D9;fill:color(display-p3 0.8510 0.8510 0.8510);fill-opacity:1;"/>
<path d="M179.025 23.2916L179.226 23.9114H179.878L179.351 24.2945L179.552 24.9143L179.025 24.5312L178.497 24.9143L178.699 24.2945L178.172 23.9114H178.823L179.025 23.2916Z" fill="#D9D9D9" style="fill:#D9D9D9;fill:color(display-p3 0.8510 0.8510 0.8510);fill-opacity:1;"/>
<path d="M371.271 22.7108L371.472 23.3306H372.124L371.596 23.7137L371.798 24.3335L371.271 23.9504L370.743 24.3335L370.945 23.7137L370.417 23.3306H371.069L371.271 22.7108Z" fill="#D9D9D9" style="fill:#D9D9D9;fill:color(display-p3 0.8510 0.8510 0.8510);fill-opacity:1;"/>
<path d="M129.964 47.425L130.166 48.0448H130.817L130.29 48.4279L130.492 49.0477L129.964 48.6646L129.437 49.0477L129.639 48.4279L129.111 48.0448H129.763L129.964 47.425Z" fill="#D9D9D9" style="fill:#D9D9D9;fill:color(display-p3 0.8510 0.8510 0.8510);fill-opacity:1;"/>
<g filter="url(#filter18_f_293_3210)">
<path d="M322.21 46.8442L322.412 47.464H323.063L322.536 47.8471L322.737 48.4669L322.21 48.0838L321.683 48.4669L321.884 47.8471L321.357 47.464H322.009L322.21 46.8442Z" fill="#D9D9D9" style="fill:#D9D9D9;fill:color(display-p3 0.8510 0.8510 0.8510);fill-opacity:1;"/>
</g>
<path d="M225.34 45.204L225.542 45.8238H226.193L225.666 46.2068L225.868 46.8266L225.34 46.4436L224.813 46.8266L225.014 46.2068L224.487 45.8238H225.139L225.34 45.204Z" fill="#D9D9D9" style="fill:#D9D9D9;fill:color(display-p3 0.8510 0.8510 0.8510);fill-opacity:1;"/>
<path d="M223.546 78.0419L223.748 78.6617H224.399L223.872 79.0447L224.074 79.6645L223.546 79.2815L223.019 79.6645L223.221 79.0447L222.693 78.6617H223.345L223.546 78.0419Z" fill="#D9D9D9" style="fill:#D9D9D9;fill:color(display-p3 0.8510 0.8510 0.8510);fill-opacity:1;"/>
<path d="M48.8652 39.1899L49.0666 39.8097H49.7183L49.1911 40.1928L49.3925 40.8126L48.8652 40.4295L48.338 40.8126L48.5394 40.1928L48.0122 39.8097H48.6639L48.8652 39.1899Z" fill="#D9D9D9" style="fill:#D9D9D9;fill:color(display-p3 0.8510 0.8510 0.8510);fill-opacity:1;"/>
<path d="M10.5947 46.8445L10.7961 47.4643H11.4478L10.9206 47.8473L11.122 48.4671L10.5947 48.0841L10.0675 48.4671L10.2689 47.8473L9.74165 47.4643H10.3933L10.5947 46.8445Z" fill="#D9D9D9" style="fill:#D9D9D9;fill:color(display-p3 0.8510 0.8510 0.8510);fill-opacity:1;"/>
<path d="M241.111 38.6091L241.312 39.2289H241.964L241.437 39.612L241.638 40.2318L241.111 39.8487L240.584 40.2318L240.785 39.612L240.258 39.2289H240.91L241.111 38.6091Z" fill="#D9D9D9" style="fill:#D9D9D9;fill:color(display-p3 0.8510 0.8510 0.8510);fill-opacity:1;"/>
<path d="M144.241 36.9689L144.443 37.5887H145.094L144.567 37.9717L144.768 38.5915L144.241 38.2085L143.714 38.5915L143.915 37.9717L143.388 37.5887H144.04L144.241 36.9689Z" fill="#D9D9D9" style="fill:#D9D9D9;fill:color(display-p3 0.8510 0.8510 0.8510);fill-opacity:1;"/>
<g filter="url(#filter19_f_293_3210)">
<path d="M336.487 36.3881L336.688 37.0079H337.34L336.813 37.3909L337.014 38.0107L336.487 37.6276L335.96 38.0107L336.161 37.3909L335.634 37.0079H336.286L336.487 36.3881Z" fill="#D9D9D9" style="fill:#D9D9D9;fill:color(display-p3 0.8510 0.8510 0.8510);fill-opacity:1;"/>
</g>
<path d="M95.1812 61.1023L95.3825 61.7221H96.0342L95.507 62.1051L95.7084 62.7249L95.1812 62.3419L94.6539 62.7249L94.8553 62.1051L94.3281 61.7221H94.9798L95.1812 61.1023Z" fill="#D9D9D9" style="fill:#D9D9D9;fill:color(display-p3 0.8510 0.8510 0.8510);fill-opacity:1;"/>
<path d="M287.427 60.5215L287.628 61.1413H288.28L287.753 61.5243L287.954 62.1441L287.427 61.7611L286.9 62.1441L287.101 61.5243L286.574 61.1413H287.226L287.427 60.5215Z" fill="#D9D9D9" style="fill:#D9D9D9;fill:color(display-p3 0.8510 0.8510 0.8510);fill-opacity:1;"/>
<path d="M190.557 58.8812L190.759 59.501H191.41L190.883 59.8841L191.084 60.5039L190.557 60.1208L190.03 60.5039L190.231 59.8841L189.704 59.501H190.356L190.557 58.8812Z" fill="#D9D9D9" style="fill:#D9D9D9;fill:color(display-p3 0.8510 0.8510 0.8510);fill-opacity:1;"/>
<path d="M188.763 91.7191L188.965 92.3389H189.616L189.089 92.722L189.29 93.3418L188.763 92.9587L188.236 93.3418L188.437 92.722L187.91 92.3389H188.562L188.763 91.7191Z" fill="#D9D9D9" style="fill:#D9D9D9;fill:color(display-p3 0.8510 0.8510 0.8510);fill-opacity:1;"/>
<path d="M90.3386 37.396L90.54 38.0158H91.1917L90.6645 38.3988L90.8659 39.0186L90.3386 38.6356L89.8114 39.0186L90.0128 38.3988L89.4856 38.0158H90.1372L90.3386 37.396Z" fill="#D9D9D9" style="fill:#D9D9D9;fill:color(display-p3 0.8510 0.8510 0.8510);fill-opacity:1;"/>
<path d="M52.0681 45.0505L52.2695 45.6703H52.9212L52.394 46.0534L52.5953 46.6732L52.0681 46.2901L51.5409 46.6732L51.7423 46.0534L51.215 45.6703H51.8667L52.0681 45.0505Z" fill="#D9D9D9" style="fill:#D9D9D9;fill:color(display-p3 0.8510 0.8510 0.8510);fill-opacity:1;"/>
<g filter="url(#filter20_f_293_3210)">
<path d="M282.584 36.8152L282.786 37.435H283.438L282.91 37.818L283.112 38.4378L282.584 38.0548L282.057 38.4378L282.259 37.818L281.731 37.435H282.383L282.584 36.8152Z" fill="#D9D9D9" style="fill:#D9D9D9;fill:color(display-p3 0.8510 0.8510 0.8510);fill-opacity:1;"/>
</g>
<path d="M185.715 35.1749L185.916 35.7947H186.568L186.04 36.1778L186.242 36.7976L185.715 36.4145L185.187 36.7976L185.389 36.1778L184.862 35.7947H185.513L185.715 35.1749Z" fill="#D9D9D9" style="fill:#D9D9D9;fill:color(display-p3 0.8510 0.8510 0.8510);fill-opacity:1;"/>
<path d="M136.654 59.3083L136.856 59.9281H137.507L136.98 60.3112L137.182 60.931L136.654 60.5479L136.127 60.931L136.328 60.3112L135.801 59.9281H136.453L136.654 59.3083Z" fill="#D9D9D9" style="fill:#D9D9D9;fill:color(display-p3 0.8510 0.8510 0.8510);fill-opacity:1;"/>
<path d="M328.9 58.7275L329.102 59.3473H329.753L329.226 59.7304L329.427 60.3502L328.9 59.9671L328.373 60.3502L328.574 59.7304L328.047 59.3473H328.699L328.9 58.7275Z" fill="#D9D9D9" style="fill:#D9D9D9;fill:color(display-p3 0.8510 0.8510 0.8510);fill-opacity:1;"/>
<path d="M232.03 57.0873L232.232 57.7071H232.883L232.356 58.0901L232.558 58.7099L232.03 58.3269L231.503 58.7099L231.704 58.0901L231.177 57.7071H231.829L232.03 57.0873Z" fill="#D9D9D9" style="fill:#D9D9D9;fill:color(display-p3 0.8510 0.8510 0.8510);fill-opacity:1;"/>
<g filter="url(#filter21_f_293_3210)">
<path d="M230.236 89.9252L230.438 90.545H231.089L230.562 90.928L230.764 91.5478L230.236 91.1648L229.709 91.5478L229.91 90.928L229.383 90.545H230.035L230.236 89.9252Z" fill="#D9D9D9" style="fill:#D9D9D9;fill:color(display-p3 0.8510 0.8510 0.8510);fill-opacity:1;"/>
</g>
<path d="M66.1687 38.1904L66.3701 38.8102H67.0218L66.4945 39.1933L66.6959 39.8131L66.1687 39.43L65.6415 39.8131L65.8429 39.1933L65.3156 38.8102H65.9673L66.1687 38.1904Z" fill="#D9D9D9" style="fill:#D9D9D9;fill:color(display-p3 0.8510 0.8510 0.8510);fill-opacity:1;"/>
<path d="M27.8982 45.845L28.0996 46.4648H28.7513L28.224 46.8478L28.4254 47.4676L27.8982 47.0846L27.371 47.4676L27.5723 46.8478L27.0451 46.4648H27.6968L27.8982 45.845Z" fill="#D9D9D9" style="fill:#D9D9D9;fill:color(display-p3 0.8510 0.8510 0.8510);fill-opacity:1;"/>
<path d="M258.415 37.6096L258.616 38.2294H259.268L258.74 38.6125L258.942 39.2323L258.415 38.8492L257.887 39.2323L258.089 38.6125L257.561 38.2294H258.213L258.415 37.6096Z" fill="#D9D9D9" style="fill:#D9D9D9;fill:color(display-p3 0.8510 0.8510 0.8510);fill-opacity:1;"/>
<path d="M161.545 35.9694L161.746 36.5892H162.398L161.871 36.9722L162.072 37.592L161.545 37.2089L161.017 37.592L161.219 36.9722L160.692 36.5892H161.343L161.545 35.9694Z" fill="#D9D9D9" style="fill:#D9D9D9;fill:color(display-p3 0.8510 0.8510 0.8510);fill-opacity:1;"/>
<path d="M353.791 35.3885L353.992 36.0083H354.644L354.116 36.3914L354.318 37.0112L353.791 36.6281L353.263 37.0112L353.465 36.3914L352.937 36.0083H353.589L353.791 35.3885Z" fill="#D9D9D9" style="fill:#D9D9D9;fill:color(display-p3 0.8510 0.8510 0.8510);fill-opacity:1;"/>
<path d="M112.484 60.1028L112.686 60.7226H113.337L112.81 61.1056L113.012 61.7254L112.484 61.3424L111.957 61.7254L112.159 61.1056L111.631 60.7226H112.283L112.484 60.1028Z" fill="#D9D9D9" style="fill:#D9D9D9;fill:color(display-p3 0.8510 0.8510 0.8510);fill-opacity:1;"/>
<path d="M304.73 59.522L304.932 60.1418H305.583L305.056 60.5248L305.257 61.1446L304.73 60.7616L304.203 61.1446L304.404 60.5248L303.877 60.1418H304.529L304.73 59.522Z" fill="#D9D9D9" style="fill:#D9D9D9;fill:color(display-p3 0.8510 0.8510 0.8510);fill-opacity:1;"/>
<path d="M207.86 57.8817L208.062 58.5015H208.713L208.186 58.8846L208.388 59.5044L207.86 59.1213L207.333 59.5044L207.535 58.8846L207.007 58.5015H207.659L207.86 57.8817Z" fill="#D9D9D9" style="fill:#D9D9D9;fill:color(display-p3 0.8510 0.8510 0.8510);fill-opacity:1;"/>
<path d="M206.066 90.7196L206.268 91.3394H206.919L206.392 91.7225L206.594 92.3422L206.066 91.9592L205.539 92.3422L205.741 91.7225L205.213 91.3394H205.865L206.066 90.7196Z" fill="#D9D9D9" style="fill:#D9D9D9;fill:color(display-p3 0.8510 0.8510 0.8510);fill-opacity:1;"/>
<path d="M108.389 36.3965L108.758 37.4708H109.953L108.986 38.1348L109.356 39.2092L108.389 38.5452L107.423 39.2092L107.792 38.1348L106.826 37.4708H108.02L108.389 36.3965Z" fill="#D9D9D9" style="fill:#D9D9D9;fill:color(display-p3 0.8510 0.8510 0.8510);fill-opacity:1;"/>
<path d="M69.3716 44.051L69.573 44.6708H70.2247L69.6974 45.0539L69.8988 45.6737L69.3716 45.2906L68.8444 45.6737L69.0457 45.0539L68.5185 44.6708H69.1702L69.3716 44.051Z" fill="#D9D9D9" style="fill:#D9D9D9;fill:color(display-p3 0.8510 0.8510 0.8510);fill-opacity:1;"/>
<path d="M299.888 35.8157L300.089 36.4355H300.741L300.214 36.8185L300.415 37.4383L299.888 37.0553L299.361 37.4383L299.562 36.8185L299.035 36.4355H299.687L299.888 35.8157Z" fill="#D9D9D9" style="fill:#D9D9D9;fill:color(display-p3 0.8510 0.8510 0.8510);fill-opacity:1;"/>
<path d="M203.018 34.1754L203.219 34.7952H203.871L203.344 35.1783L203.545 35.7981L203.018 35.415L202.491 35.7981L202.692 35.1783L202.165 34.7952H202.817L203.018 34.1754Z" fill="#D9D9D9" style="fill:#D9D9D9;fill:color(display-p3 0.8510 0.8510 0.8510);fill-opacity:1;"/>
<path d="M153.958 58.3088L154.159 58.9286H154.811L154.284 59.3117L154.485 59.9315L153.958 59.5484L153.431 59.9315L153.632 59.3117L153.105 58.9286H153.757L153.958 58.3088Z" fill="#D9D9D9" style="fill:#D9D9D9;fill:color(display-p3 0.8510 0.8510 0.8510);fill-opacity:1;"/>
<path d="M346.204 57.728L346.405 58.3478H347.057L346.53 58.7309L346.731 59.3507L346.204 58.9676L345.677 59.3507L345.878 58.7309L345.351 58.3478H346.002L346.204 57.728Z" fill="#D9D9D9" style="fill:#D9D9D9;fill:color(display-p3 0.8510 0.8510 0.8510);fill-opacity:1;"/>
<path d="M249.334 56.0878L249.535 56.7076H250.187L249.66 57.0906L249.861 57.7104L249.334 57.3274L248.807 57.7104L249.008 57.0906L248.481 56.7076H249.133L249.334 56.0878Z" fill="#D9D9D9" style="fill:#D9D9D9;fill:color(display-p3 0.8510 0.8510 0.8510);fill-opacity:1;"/>
<path d="M247.54 88.9257L247.741 89.5455H248.393L247.866 89.9285L248.067 90.5483L247.54 90.1652L247.013 90.5483L247.214 89.9285L246.687 89.5455H247.339L247.54 88.9257Z" fill="#D9D9D9" style="fill:#D9D9D9;fill:color(display-p3 0.8510 0.8510 0.8510);fill-opacity:1;"/>
<path d="M72.8586 50.0735L73.06 50.6933H73.7117L73.1845 51.0763L73.3859 51.6961L72.8586 51.3131L72.3314 51.6961L72.5328 51.0763L72.0056 50.6933H72.6573L72.8586 50.0735Z" fill="#D9D9D9" style="fill:#D9D9D9;fill:color(display-p3 0.8510 0.8510 0.8510);fill-opacity:1;"/>
<path d="M34.5881 57.728L34.7895 58.3478H35.4412L34.914 58.7309L35.1154 59.3507L34.5881 58.9676L34.0609 59.3507L34.2623 58.7309L33.7351 58.3478H34.3868L34.5881 57.728Z" fill="#D9D9D9" style="fill:#D9D9D9;fill:color(display-p3 0.8510 0.8510 0.8510);fill-opacity:1;"/>
<path d="M265.104 49.4927L265.306 50.1125H265.958L265.43 50.4955L265.632 51.1153L265.104 50.7323L264.577 51.1153L264.779 50.4955L264.251 50.1125H264.903L265.104 49.4927Z" fill="#D9D9D9" style="fill:#D9D9D9;fill:color(display-p3 0.8510 0.8510 0.8510);fill-opacity:1;"/>
<g filter="url(#filter22_f_293_3210)">
<path d="M168.235 47.8524L168.436 48.4722H169.088L168.56 48.8553L168.762 49.4751L168.235 49.092L167.707 49.4751L167.909 48.8553L167.382 48.4722H168.033L168.235 47.8524Z" fill="#D9D9D9" style="fill:#D9D9D9;fill:color(display-p3 0.8510 0.8510 0.8510);fill-opacity:1;"/>
</g>
<path d="M360.48 47.2716L360.682 47.8914H361.334L360.806 48.2745L361.008 48.8942L360.48 48.5112L359.953 48.8942L360.155 48.2745L359.627 47.8914H360.279L360.48 47.2716Z" fill="#D9D9D9" style="fill:#D9D9D9;fill:color(display-p3 0.8510 0.8510 0.8510);fill-opacity:1;"/>
<path d="M119.174 71.9858L119.376 72.6056H120.027L119.5 72.9887L119.702 73.6085L119.174 73.2254L118.647 73.6085L118.848 72.9887L118.321 72.6056H118.973L119.174 71.9858Z" fill="#D9D9D9" style="fill:#D9D9D9;fill:color(display-p3 0.8510 0.8510 0.8510);fill-opacity:1;"/>
<path d="M214.55 69.7648L214.752 70.3846H215.403L214.876 70.7676L215.078 71.3874L214.55 71.0044L214.023 71.3874L214.224 70.7676L213.697 70.3846H214.349L214.55 69.7648Z" fill="#D9D9D9" style="fill:#D9D9D9;fill:color(display-p3 0.8510 0.8510 0.8510);fill-opacity:1;"/>
<path d="M212.756 102.603L212.958 103.222H213.609L213.082 103.606L213.284 104.225L212.756 103.842L212.229 104.225L212.431 103.606L211.903 103.222H212.555L212.756 102.603Z" fill="#D9D9D9" style="fill:#D9D9D9;fill:color(display-p3 0.8510 0.8510 0.8510);fill-opacity:1;"/>
<path d="M114.332 48.2795L114.533 48.8993H115.185L114.658 49.2824L114.859 49.9022L114.332 49.5191L113.805 49.9022L114.006 49.2824L113.479 48.8993H114.131L114.332 48.2795Z" fill="#D9D9D9" style="fill:#D9D9D9;fill:color(display-p3 0.8510 0.8510 0.8510);fill-opacity:1;"/>
<path d="M76.0615 55.9341L76.2629 56.5539H76.9146L76.3874 56.9369L76.5888 57.5567L76.0615 57.1737L75.5343 57.5567L75.7357 56.9369L75.2085 56.5539H75.8601L76.0615 55.9341Z" fill="#D9D9D9" style="fill:#D9D9D9;fill:color(display-p3 0.8510 0.8510 0.8510);fill-opacity:1;"/>
<path d="M306.578 47.6987L306.779 48.3185H307.431L306.904 48.7016L307.105 49.3214L306.578 48.9383L306.051 49.3214L306.252 48.7016L305.725 48.3185H306.376L306.578 47.6987Z" fill="#D9D9D9" style="fill:#D9D9D9;fill:color(display-p3 0.8510 0.8510 0.8510);fill-opacity:1;"/>
<path d="M209.708 46.0585L209.909 46.6783H210.561L210.034 47.0613L210.235 47.6811L209.708 47.2981L209.181 47.6811L209.382 47.0613L208.855 46.6783H209.507L209.708 46.0585Z" fill="#D9D9D9" style="fill:#D9D9D9;fill:color(display-p3 0.8510 0.8510 0.8510);fill-opacity:1;"/>
<path d="M207.914 78.8964L208.115 79.5162H208.767L208.24 79.8992L208.441 80.519L207.914 80.1359L207.387 80.519L207.588 79.8992L207.061 79.5162H207.713L207.914 78.8964Z" fill="#D9D9D9" style="fill:#D9D9D9;fill:color(display-p3 0.8510 0.8510 0.8510);fill-opacity:1;"/>
<path d="M160.648 70.1919L160.849 70.8117H161.501L160.974 71.1947L161.175 71.8145L160.648 71.4315L160.121 71.8145L160.322 71.1947L159.795 70.8117H160.447L160.648 70.1919Z" fill="#D9D9D9" style="fill:#D9D9D9;fill:color(display-p3 0.8510 0.8510 0.8510);fill-opacity:1;"/>
<path d="M256.024 67.9708L256.225 68.5906H256.877L256.35 68.9737L256.551 69.5935L256.024 69.2104L255.497 69.5935L255.698 68.9737L255.171 68.5906H255.823L256.024 67.9708Z" fill="#D9D9D9" style="fill:#D9D9D9;fill:color(display-p3 0.8510 0.8510 0.8510);fill-opacity:1;"/>
<path d="M254.23 100.809L254.431 101.429H255.083L254.556 101.812L254.757 102.431L254.23 102.048L253.703 102.431L253.904 101.812L253.377 101.429H254.029L254.23 100.809Z" fill="#D9D9D9" style="fill:#D9D9D9;fill:color(display-p3 0.8510 0.8510 0.8510);fill-opacity:1;"/>
<g filter="url(#filter23_f_293_3210)">
<path d="M331.797 46.0729C333.591 46.1964 335.295 46.6141 336.864 47.2753C328.781 46.9465 321.856 53.1115 321.296 61.2336C320.737 69.3552 326.751 76.4107 334.802 77.1939C333.157 77.6334 331.413 77.8148 329.62 77.6914C320.889 77.09 314.299 69.5243 314.9 60.7932C315.501 52.062 323.066 45.4717 331.797 46.0729Z" fill="#D9D9D9" style="fill:#D9D9D9;fill:color(display-p3 0.8510 0.8510 0.8510);fill-opacity:1;"/>
</g>
<path d="M331.733 47.5202C333.526 47.6437 335.229 48.0607 336.798 48.7216C328.715 48.3935 321.79 54.5594 321.231 62.6812C320.672 70.8029 326.686 77.858 334.738 78.6409C333.093 79.0806 331.349 79.2621 329.555 79.1387C320.824 78.5374 314.234 70.9718 314.835 62.2408C315.436 53.5096 323.002 46.9189 331.733 47.5202Z" fill="#D9D9D9" style="fill:#D9D9D9;fill:color(display-p3 0.8510 0.8510 0.8510);fill-opacity:1;"/>
<g filter="url(#filter24_f_293_3210)">
<circle cx="36.0823" cy="209.218" r="19.1207" fill="#AC7119" style="fill:#AC7119;fill:color(display-p3 0.6731 0.4435 0.0990);fill-opacity:1;"/>
</g>
<ellipse cx="35.7636" cy="208.239" rx="2.21518" ry="2.29127" fill="#EFDE60" style="fill:#EFDE60;fill:color(display-p3 0.9373 0.8718 0.3765);fill-opacity:1;"/>
<g filter="url(#filter25_f_293_3210)">
<circle cx="315.807" cy="211.243" r="17.6995" fill="#AC7119" style="fill:#AC7119;fill:color(display-p3 0.6731 0.4435 0.0990);fill-opacity:1;"/>
</g>
<ellipse cx="315.512" cy="210.337" rx="2.05052" ry="2.12095" fill="#EFDE60" style="fill:#EFDE60;fill:color(display-p3 0.9373 0.8718 0.3765);fill-opacity:1;"/>
</g>
</g>
<defs>
<filter id="filter0_f_293_3210" x="-90.4099" y="23.057" width="610.963" height="261.797" filterUnits="userSpaceOnUse" color-interpolation-filters="sRGB">
<feFlood flood-opacity="0" result="BackgroundImageFix"/>
<feBlend mode="normal" in="SourceGraphic" in2="BackgroundImageFix" result="shape"/>
<feGaussianBlur stdDeviation="40.2" result="effect1_foregroundBlur_293_3210"/>
</filter>
<filter id="filter1_n_293_3210" x="-38.9128" y="78.5063" width="493.112" height="83.6068" filterUnits="userSpaceOnUse" color-interpolation-filters="sRGB">
<feFlood flood-opacity="0" result="BackgroundImageFix"/>
<feBlend mode="normal" in="SourceGraphic" in2="BackgroundImageFix" result="shape"/>
<feTurbulence type="fractalNoise" baseFrequency="2 2" stitchTiles="stitch" numOctaves="3" result="noise" seed="8412" />
<feColorMatrix in="noise" type="luminanceToAlpha" result="alphaNoise" />
<feComponentTransfer in="alphaNoise" result="coloredNoise1">
<feFuncA type="discrete" tableValues="1 1 1 1 1 1 1 1 1 1 1 1 1 1 1 1 1 1 1 1 1 1 1 1 1 1 1 1 1 1 1 1 1 1 1 1 1 1 1 1 1 1 1 1 1 1 1 1 1 1 1 0 0 0 0 0 0 0 0 0 0 0 0 0 0 0 0 0 0 0 0 0 0 0 0 0 0 0 0 0 0 0 0 0 0 0 0 0 0 0 0 0 0 0 0 0 0 0 0 0 "/>
</feComponentTransfer>
<feComposite operator="in" in2="shape" in="coloredNoise1" result="noise1Clipped" />
<feFlood flood-color="rgba(0, 0, 0, 0.25)" result="color1Flood" />
<feComposite operator="in" in2="noise1Clipped" in="color1Flood" result="color1" />
<feMerge result="effect1_noise_293_3210">
<feMergeNode in="shape" />
<feMergeNode in="color1" />
</feMerge>
</filter>
<filter id="filter2_n_293_3210" x="-63.4252" y="120.034" width="493.112" height="109.315" filterUnits="userSpaceOnUse" color-interpolation-filters="sRGB">
<feFlood flood-opacity="0" result="BackgroundImageFix"/>
<feBlend mode="normal" in="SourceGraphic" in2="BackgroundImageFix" result="shape"/>
<feTurbulence type="fractalNoise" baseFrequency="2 2" stitchTiles="stitch" numOctaves="3" result="noise" seed="8412" />
<feColorMatrix in="noise" type="luminanceToAlpha" result="alphaNoise" />
<feComponentTransfer in="alphaNoise" result="coloredNoise1">
<feFuncA type="discrete" tableValues="1 1 1 1 1 1 1 1 1 1 1 1 1 1 1 1 1 1 1 1 1 1 1 1 1 1 1 1 1 1 1 1 1 1 1 1 1 1 1 1 1 1 1 1 1 1 1 1 1 1 1 0 0 0 0 0 0 0 0 0 0 0 0 0 0 0 0 0 0 0 0 0 0 0 0 0 0 0 0 0 0 0 0 0 0 0 0 0 0 0 0 0 0 0 0 0 0 0 0 0 "/>
</feComponentTransfer>
<feComposite operator="in" in2="shape" in="coloredNoise1" result="noise1Clipped" />
<feFlood flood-color="rgba(0, 0, 0, 0.25)" result="color1Flood" />
<feComposite operator="in" in2="noise1Clipped" in="color1Flood" result="color1" />
<feMerge result="effect1_noise_293_3210">
<feMergeNode in="shape" />
<feMergeNode in="color1" />
</feMerge>
</filter>
<filter id="filter3_f_293_3210" x="197.68" y="168.313" width="81.8104" height="81.8104" filterUnits="userSpaceOnUse" color-interpolation-filters="sRGB">
<feFlood flood-opacity="0" result="BackgroundImageFix"/>
<feBlend mode="normal" in="SourceGraphic" in2="BackgroundImageFix" result="shape"/>
<feGaussianBlur stdDeviation="15.5266" result="effect1_foregroundBlur_293_3210"/>
</filter>
<filter id="filter4_f_293_3210" x="73.667" y="132.732" width="90.7401" height="90.7401" filterUnits="userSpaceOnUse" color-interpolation-filters="sRGB">
<feFlood flood-opacity="0" result="BackgroundImageFix"/>
<feBlend mode="normal" in="SourceGraphic" in2="BackgroundImageFix" result="shape"/>
<feGaussianBlur stdDeviation="17.2214" result="effect1_foregroundBlur_293_3210"/>
</filter>
<filter id="filter5_dn_293_3210" x="-13.4373" y="178.102" width="485.699" height="108.473" filterUnits="userSpaceOnUse" color-interpolation-filters="sRGB">
<feFlood flood-opacity="0" result="BackgroundImageFix"/>
<feColorMatrix in="SourceAlpha" type="matrix" values="0 0 0 0 0 0 0 0 0 0 0 0 0 0 0 0 0 0 127 0" result="hardAlpha"/>
<feOffset dy="4"/>
<feGaussianBlur stdDeviation="2"/>
<feComposite in2="hardAlpha" operator="out"/>
<feColorMatrix type="matrix" values="0 0 0 0 0 0 0 0 0 0 0 0 0 0 0 0 0 0 0.25 0"/>
<feBlend mode="normal" in2="BackgroundImageFix" result="effect1_dropShadow_293_3210"/>
<feBlend mode="normal" in="SourceGraphic" in2="BackgroundImageFix" result="shape"/>
<feTurbulence type="fractalNoise" baseFrequency="2 2" stitchTiles="stitch" numOctaves="3" result="noise" seed="8412" />
<feColorMatrix in="noise" type="luminanceToAlpha" result="alphaNoise" />
<feComponentTransfer in="alphaNoise" result="coloredNoise1">
<feFuncA type="discrete" tableValues="1 1 1 1 1 1 1 1 1 1 1 1 1 1 1 1 1 1 1 1 1 1 1 1 1 1 1 1 1 1 1 1 1 1 1 1 1 1 1 1 1 1 1 1 1 1 1 1 1 1 1 0 0 0 0 0 0 0 0 0 0 0 0 0 0 0 0 0 0 0 0 0 0 0 0 0 0 0 0 0 0 0 0 0 0 0 0 0 0 0 0 0 0 0 0 0 0 0 0 0 "/>
</feComponentTransfer>
<feComposite operator="in" in2="shape" in="coloredNoise1" result="noise1Clipped" />
<feFlood flood-color="rgba(0, 0, 0, 0.25)" result="color1Flood" />
<feComposite operator="in" in2="noise1Clipped" in="color1Flood" result="color1" />
<feMerge result="effect2_noise_293_3210">
<feMergeNode in="shape" />
<feMergeNode in="color1" />
</feMerge>
<feBlend mode="normal" in="effect2_noise_293_3210" in2="effect1_dropShadow_293_3210" result="effect2_noise_293_3210"/>
</filter>
<filter id="filter6_f_293_3210" x="54.721" y="17.3907" width="3.90618" height="3.82262" filterUnits="userSpaceOnUse" color-interpolation-filters="sRGB">
<feFlood flood-opacity="0" result="BackgroundImageFix"/>
<feBlend mode="normal" in="SourceGraphic" in2="BackgroundImageFix" result="shape"/>
<feGaussianBlur stdDeviation="0.55" result="effect1_foregroundBlur_293_3210"/>
</filter>
<filter id="filter7_f_293_3210" x="198.106" y="75.9426" width="3.90605" height="3.82262" filterUnits="userSpaceOnUse" color-interpolation-filters="sRGB">
<feFlood flood-opacity="0" result="BackgroundImageFix"/>
<feBlend mode="normal" in="SourceGraphic" in2="BackgroundImageFix" result="shape"/>
<feGaussianBlur stdDeviation="0.55" result="effect1_foregroundBlur_293_3210"/>
</filter>
<filter id="filter8_f_293_3210" x="195.057" y="19.3984" width="3.90605" height="3.82262" filterUnits="userSpaceOnUse" color-interpolation-filters="sRGB">
<feFlood flood-opacity="0" result="BackgroundImageFix"/>
<feBlend mode="normal" in="SourceGraphic" in2="BackgroundImageFix" result="shape"/>
<feGaussianBlur stdDeviation="0.55" result="effect1_foregroundBlur_293_3210"/>
</filter>
<filter id="filter9_f_293_3210" x="145.997" y="43.5318" width="3.90605" height="3.82262" filterUnits="userSpaceOnUse" color-interpolation-filters="sRGB">
<feFlood flood-opacity="0" result="BackgroundImageFix"/>
<feBlend mode="normal" in="SourceGraphic" in2="BackgroundImageFix" result="shape"/>
<feGaussianBlur stdDeviation="0.55" result="effect1_foregroundBlur_293_3210"/>
</filter>
<filter id="filter10_f_293_3210" x="241.373" y="41.3108" width="3.90605" height="3.82262" filterUnits="userSpaceOnUse" color-interpolation-filters="sRGB">
<feFlood flood-opacity="0" result="BackgroundImageFix"/>
<feBlend mode="normal" in="SourceGraphic" in2="BackgroundImageFix" result="shape"/>
<feGaussianBlur stdDeviation="0.55" result="effect1_foregroundBlur_293_3210"/>
</filter>
<filter id="filter11_f_293_3210" x="300.326" y="16.4937" width="3.90605" height="3.82262" filterUnits="userSpaceOnUse" color-interpolation-filters="sRGB">
<feFlood flood-opacity="0" result="BackgroundImageFix"/>
<feBlend mode="normal" in="SourceGraphic" in2="BackgroundImageFix" result="shape"/>
<feGaussianBlur stdDeviation="0.55" result="effect1_foregroundBlur_293_3210"/>
</filter>
<filter id="filter12_f_293_3210" x="73.2967" y="30.7516" width="3.90618" height="3.82262" filterUnits="userSpaceOnUse" color-interpolation-filters="sRGB">
<feFlood flood-opacity="0" result="BackgroundImageFix"/>
<feBlend mode="normal" in="SourceGraphic" in2="BackgroundImageFix" result="shape"/>
<feGaussianBlur stdDeviation="0.55" result="effect1_foregroundBlur_293_3210"/>
</filter>
<filter id="filter13_f_293_3210" x="35.0262" y="38.4061" width="3.90618" height="3.82262" filterUnits="userSpaceOnUse" color-interpolation-filters="sRGB">
<feFlood flood-opacity="0" result="BackgroundImageFix"/>
<feBlend mode="normal" in="SourceGraphic" in2="BackgroundImageFix" result="shape"/>
<feGaussianBlur stdDeviation="0.55" result="effect1_foregroundBlur_293_3210"/>
</filter>
<filter id="filter14_f_293_3210" x="360.919" y="27.9497" width="3.90605" height="3.82262" filterUnits="userSpaceOnUse" color-interpolation-filters="sRGB">
<feFlood flood-opacity="0" result="BackgroundImageFix"/>
<feBlend mode="normal" in="SourceGraphic" in2="BackgroundImageFix" result="shape"/>
<feGaussianBlur stdDeviation="0.55" result="effect1_foregroundBlur_293_3210"/>
</filter>
<filter id="filter15_f_293_3210" x="114.77" y="28.9576" width="3.90618" height="3.82262" filterUnits="userSpaceOnUse" color-interpolation-filters="sRGB">
<feFlood flood-opacity="0" result="BackgroundImageFix"/>
<feBlend mode="normal" in="SourceGraphic" in2="BackgroundImageFix" result="shape"/>
<feGaussianBlur stdDeviation="0.55" result="effect1_foregroundBlur_293_3210"/>
</filter>
<filter id="filter16_f_293_3210" x="210.146" y="26.7365" width="3.90605" height="3.82262" filterUnits="userSpaceOnUse" color-interpolation-filters="sRGB">
<feFlood flood-opacity="0" result="BackgroundImageFix"/>
<feBlend mode="normal" in="SourceGraphic" in2="BackgroundImageFix" result="shape"/>
<feGaussianBlur stdDeviation="0.55" result="effect1_foregroundBlur_293_3210"/>
</filter>
<filter id="filter17_f_293_3210" x="48.2676" y="55.7737" width="3.90618" height="3.82262" filterUnits="userSpaceOnUse" color-interpolation-filters="sRGB">
<feFlood flood-opacity="0" result="BackgroundImageFix"/>
<feBlend mode="normal" in="SourceGraphic" in2="BackgroundImageFix" result="shape"/>
<feGaussianBlur stdDeviation="0.55" result="effect1_foregroundBlur_293_3210"/>
</filter>
<filter id="filter18_f_293_3210" x="320.257" y="45.7442" width="3.90605" height="3.82262" filterUnits="userSpaceOnUse" color-interpolation-filters="sRGB">
<feFlood flood-opacity="0" result="BackgroundImageFix"/>
<feBlend mode="normal" in="SourceGraphic" in2="BackgroundImageFix" result="shape"/>
<feGaussianBlur stdDeviation="0.55" result="effect1_foregroundBlur_293_3210"/>
</filter>
<filter id="filter19_f_293_3210" x="334.534" y="35.2881" width="3.90605" height="3.82262" filterUnits="userSpaceOnUse" color-interpolation-filters="sRGB">
<feFlood flood-opacity="0" result="BackgroundImageFix"/>
<feBlend mode="normal" in="SourceGraphic" in2="BackgroundImageFix" result="shape"/>
<feGaussianBlur stdDeviation="0.55" result="effect1_foregroundBlur_293_3210"/>
</filter>
<filter id="filter20_f_293_3210" x="280.631" y="35.7152" width="3.90605" height="3.82262" filterUnits="userSpaceOnUse" color-interpolation-filters="sRGB">
<feFlood flood-opacity="0" result="BackgroundImageFix"/>
<feBlend mode="normal" in="SourceGraphic" in2="BackgroundImageFix" result="shape"/>
<feGaussianBlur stdDeviation="0.55" result="effect1_foregroundBlur_293_3210"/>
</filter>
<filter id="filter21_f_293_3210" x="228.283" y="88.8252" width="3.90605" height="3.82262" filterUnits="userSpaceOnUse" color-interpolation-filters="sRGB">
<feFlood flood-opacity="0" result="BackgroundImageFix"/>
<feBlend mode="normal" in="SourceGraphic" in2="BackgroundImageFix" result="shape"/>
<feGaussianBlur stdDeviation="0.55" result="effect1_foregroundBlur_293_3210"/>
</filter>
<filter id="filter22_f_293_3210" x="166.282" y="46.7524" width="3.90605" height="3.82262" filterUnits="userSpaceOnUse" color-interpolation-filters="sRGB">
<feFlood flood-opacity="0" result="BackgroundImageFix"/>
<feBlend mode="normal" in="SourceGraphic" in2="BackgroundImageFix" result="shape"/>
<feGaussianBlur stdDeviation="0.55" result="effect1_foregroundBlur_293_3210"/>
</filter>
<filter id="filter23_f_293_3210" x="302.847" y="34.0197" width="46.0324" height="55.7246" filterUnits="userSpaceOnUse" color-interpolation-filters="sRGB">
<feFlood flood-opacity="0" result="BackgroundImageFix"/>
<feBlend mode="normal" in="SourceGraphic" in2="BackgroundImageFix" result="shape"/>
<feGaussianBlur stdDeviation="6.00753" result="effect1_foregroundBlur_293_3210"/>
</filter>
<filter id="filter24_f_293_3210" x="-43.307" y="129.829" width="158.779" height="158.779" filterUnits="userSpaceOnUse" color-interpolation-filters="sRGB">
<feFlood flood-opacity="0" result="BackgroundImageFix"/>
<feBlend mode="normal" in="SourceGraphic" in2="BackgroundImageFix" result="shape"/>
<feGaussianBlur stdDeviation="30.1343" result="effect1_foregroundBlur_293_3210"/>
</filter>
<filter id="filter25_f_293_3210" x="242.318" y="137.755" width="146.976" height="146.976" filterUnits="userSpaceOnUse" color-interpolation-filters="sRGB">
<feFlood flood-opacity="0" result="BackgroundImageFix"/>
<feBlend mode="normal" in="SourceGraphic" in2="BackgroundImageFix" result="shape"/>
<feGaussianBlur stdDeviation="27.8944" result="effect1_foregroundBlur_293_3210"/>
</filter>
<linearGradient id="paint0_linear_293_3210" x1="196.5" y1="-92.4599" x2="196.5" y2="248" gradientUnits="userSpaceOnUse">
<stop stop-color="#131E15" style="stop-color:#131E15;stop-color:color(display-p3 0.0746 0.1189 0.0814);stop-opacity:1;"/>
<stop offset="0.364022" stop-color="#152D1E" style="stop-color:#152D1E;stop-color:color(display-p3 0.0829 0.1760 0.1195);stop-opacity:1;"/>
<stop offset="0.719832" stop-color="#243421" style="stop-color:#243421;stop-color:color(display-p3 0.1403 0.2041 0.1301);stop-opacity:1;"/>
</linearGradient>
<clipPath id="clip0_293_3210">
<rect width="393" height="250" fill="white" style="fill:white;fill-opacity:1;"/>
</clipPath>
<clipPath id="clip1_293_3210">
<rect width="393" height="248" fill="white" style="fill:white;fill-opacity:1;" transform="translate(0 1)"/>
</clipPath>
</defs>
</svg>
