<svg width="393" height="170" viewBox="0 0 393 170" fill="none" xmlns="http://www.w3.org/2000/svg">
<g clip-path="url(#clip0_302_2396)">
<rect width="393" height="170" fill="#141414" style="fill:#141414;fill:color(display-p3 0.0767 0.0767 0.0767);fill-opacity:1;"/>
<g style="mix-blend-mode:difference" clip-path="url(#clip1_302_2396)">
<rect width="393" height="166" transform="translate(0 -39)" fill="url(#paint0_linear_302_2396)"/>
<g filter="url(#filter0_f_302_2396)">
<path d="M440.152 64.3082C440.502 115.7 336.232 163.637 217.58 164.445C98.9281 165.254 -9.84529 106.101 -10.0097 81.9643C-10.1742 57.8275 98.5408 108.395 217.193 107.587C335.845 106.779 440.098 56.3508 440.152 64.3082Z" fill="#DADADA" style="fill:#DADADA;fill:color(display-p3 0.8563 0.8563 0.8563);fill-opacity:1;"/>
</g>
<g filter="url(#filter1_n_302_2396)">
<path d="M81.3133 38.5063C13.1805 38.5062 -38.9128 73.4699 -38.9128 73.4699V122.113H454.199V76.2437C454.199 76.2437 429.676 38.5063 376.516 38.5063C323.357 38.5063 324.576 64.159 233.719 69.7762C142.862 75.3935 149.446 38.5064 81.3133 38.5063Z" fill="#182E21" style="fill:#182E21;fill:color(display-p3 0.0955 0.1823 0.1296);fill-opacity:1;"/>
</g>
<g filter="url(#filter2_n_302_2396)">
<path d="M56.801 80.0341C-11.3318 80.0341 -63.4252 104.645 -63.4252 104.645V185.672L429.687 189.349V106.597C429.687 106.597 413.225 95.4503 360.066 95.4503C306.907 95.4503 283.587 108.078 192.731 112.032C101.874 115.986 124.934 80.0342 56.801 80.0341Z" fill="#1C341E" style="fill:#1C341E;fill:color(display-p3 0.1095 0.2055 0.1187);fill-opacity:1;"/>
</g>
<g filter="url(#filter3_f_302_2396)">
<circle cx="119.037" cy="138.102" r="10.9273" fill="#AC7119" style="fill:#AC7119;fill:color(display-p3 0.6731 0.4435 0.0990);fill-opacity:1;"/>
</g>
<path d="M61.5166 2.19714L61.718 2.81694H62.3697L61.8424 3.19999L62.0438 3.81978L61.5166 3.43673L60.9894 3.81978L61.1908 3.19999L60.6635 2.81694H61.3152L61.5166 2.19714Z" fill="#D9D9D9" style="fill:#D9D9D9;fill:color(display-p3 0.8510 0.8510 0.8510);fill-opacity:1;"/>
<path d="M106.477 6.42578L106.678 7.04557H107.33L106.803 7.42863L107.004 8.04842L106.477 7.66537L105.95 8.04842L106.151 7.42863L105.624 7.04557H106.276L106.477 6.42578Z" fill="#D9D9D9" style="fill:#D9D9D9;fill:color(display-p3 0.8510 0.8510 0.8510);fill-opacity:1;"/>
<path d="M68.2065 14.0803L68.4079 14.7001H69.0596L68.5324 15.0832L68.7338 15.703L68.2065 15.3199L67.6793 15.703L67.8807 15.0832L67.3535 14.7001H68.0052L68.2065 14.0803Z" fill="#D9D9D9" style="fill:#D9D9D9;fill:color(display-p3 0.8510 0.8510 0.8510);fill-opacity:1;"/>
<path d="M298.723 5.84497L298.924 6.46476H299.576L299.049 6.84782L299.25 7.46761L298.723 7.08456L298.196 7.46761L298.397 6.84782L297.87 6.46476H298.522L298.723 5.84497Z" fill="#D9D9D9" style="fill:#D9D9D9;fill:color(display-p3 0.8510 0.8510 0.8510);fill-opacity:1;"/>
<path d="M201.853 4.20471L202.054 4.8245H202.706L202.179 5.20756L202.38 5.82735L201.853 5.4443L201.326 5.82735L201.527 5.20756L201 4.8245H201.652L201.853 4.20471Z" fill="#D9D9D9" style="fill:#D9D9D9;fill:color(display-p3 0.8510 0.8510 0.8510);fill-opacity:1;"/>
<g filter="url(#filter4_f_302_2396)">
<path d="M200.059 37.0426L200.26 37.6624H200.912L200.385 38.0454L200.586 38.6652L200.059 38.2822L199.532 38.6652L199.733 38.0454L199.206 37.6624H199.858L200.059 37.0426Z" fill="#D9D9D9" style="fill:#D9D9D9;fill:color(display-p3 0.8510 0.8510 0.8510);fill-opacity:1;"/>
</g>
<g filter="url(#filter5_f_302_2396)">
<path d="M147.95 4.63184L148.152 5.25163H148.803L148.276 5.63468L148.477 6.25447L147.95 5.87142L147.423 6.25447L147.624 5.63468L147.097 5.25163H147.749L147.95 4.63184Z" fill="#D9D9D9" style="fill:#D9D9D9;fill:color(display-p3 0.8510 0.8510 0.8510);fill-opacity:1;"/>
</g>
<path d="M340.196 4.05103L340.397 4.67082H341.049L340.522 5.05387L340.723 5.67366L340.196 5.29061L339.669 5.67366L339.87 5.05387L339.343 4.67082H339.995L340.196 4.05103Z" fill="#D9D9D9" style="fill:#D9D9D9;fill:color(display-p3 0.8510 0.8510 0.8510);fill-opacity:1;"/>
<g filter="url(#filter6_f_302_2396)">
<path d="M243.326 2.41077L243.528 3.03056H244.179L243.652 3.41361L243.853 4.03341L243.326 3.65035L242.799 4.03341L243 3.41361L242.473 3.03056H243.125L243.326 2.41077Z" fill="#D9D9D9" style="fill:#D9D9D9;fill:color(display-p3 0.8510 0.8510 0.8510);fill-opacity:1;"/>
</g>
<path d="M241.532 35.2487L241.734 35.8685H242.385L241.858 36.2515L242.059 36.8713L241.532 36.4882L241.005 36.8713L241.206 36.2515L240.679 35.8685H241.331L241.532 35.2487Z" fill="#D9D9D9" style="fill:#D9D9D9;fill:color(display-p3 0.8510 0.8510 0.8510);fill-opacity:1;"/>
<path d="M114.875 1.88086L115.077 2.50065H115.729L115.201 2.88371L115.403 3.5035L114.875 3.12045L114.348 3.5035L114.55 2.88371L114.022 2.50065H114.674L114.875 1.88086Z" fill="#D9D9D9" style="fill:#D9D9D9;fill:color(display-p3 0.8510 0.8510 0.8510);fill-opacity:1;"/>
<path d="M76.605 9.5354L76.8064 10.1552H77.4581L76.9308 10.5382L77.1322 11.158L76.605 10.775L76.0778 11.158L76.2791 10.5382L75.7519 10.1552H76.4036L76.605 9.5354Z" fill="#D9D9D9" style="fill:#D9D9D9;fill:color(display-p3 0.8510 0.8510 0.8510);fill-opacity:1;"/>
<path d="M307.121 1.30005L307.323 1.91984H307.974L307.447 2.30289L307.649 2.92269L307.121 2.53963L306.594 2.92269L306.795 2.30289L306.268 1.91984H306.92L307.121 1.30005Z" fill="#D9D9D9" style="fill:#D9D9D9;fill:color(display-p3 0.8510 0.8510 0.8510);fill-opacity:1;"/>
<path d="M210.251 -0.34021L210.453 0.279583H211.105L210.577 0.662636L210.779 1.28243L210.251 0.899376L209.724 1.28243L209.926 0.662636L209.398 0.279583H210.05L210.251 -0.34021Z" fill="#D9D9D9" style="fill:#D9D9D9;fill:color(display-p3 0.8510 0.8510 0.8510);fill-opacity:1;"/>
<path d="M156.349 0.0869141L156.551 0.706707H157.202L156.675 1.08976L156.876 1.70955L156.349 1.3265L155.822 1.70955L156.023 1.08976L155.496 0.706707H156.148L156.349 0.0869141Z" fill="#D9D9D9" style="fill:#D9D9D9;fill:color(display-p3 0.8510 0.8510 0.8510);fill-opacity:1;"/>
<path d="M348.595 -0.493896L348.796 0.125896H349.448L348.921 0.508949L349.122 1.12874L348.595 0.745689L348.068 1.12874L348.269 0.508949L347.742 0.125896H348.394L348.595 -0.493896Z" fill="#D9D9D9" style="fill:#D9D9D9;fill:color(display-p3 0.8510 0.8510 0.8510);fill-opacity:1;"/>
<g filter="url(#filter7_f_302_2396)">
<path d="M36.9792 -0.493896L37.1806 0.125896H37.8323L37.3051 0.508949L37.5065 1.12874L36.9792 0.745689L36.452 1.12874L36.6534 0.508949L36.1262 0.125896H36.7779L36.9792 -0.493896Z" fill="#D9D9D9" style="fill:#D9D9D9;fill:color(display-p3 0.8510 0.8510 0.8510);fill-opacity:1;"/>
</g>
<path d="M121.565 13.7639L121.767 14.3837H122.419L121.891 14.7668L122.093 15.3866L121.565 15.0035L121.038 15.3866L121.24 14.7668L120.712 14.3837H121.364L121.565 13.7639Z" fill="#D9D9D9" style="fill:#D9D9D9;fill:color(display-p3 0.8510 0.8510 0.8510);fill-opacity:1;"/>
<path d="M313.811 13.1831L314.013 13.8029H314.664L314.137 14.186L314.339 14.8057L313.811 14.4227L313.284 14.8057L313.485 14.186L312.958 13.8029H313.61L313.811 13.1831Z" fill="#D9D9D9" style="fill:#D9D9D9;fill:color(display-p3 0.8510 0.8510 0.8510);fill-opacity:1;"/>
<path d="M216.941 11.5428L217.143 12.1626H217.794L217.267 12.5457L217.469 13.1655L216.941 12.7824L216.414 13.1655L216.616 12.5457L216.088 12.1626H216.74L216.941 11.5428Z" fill="#D9D9D9" style="fill:#D9D9D9;fill:color(display-p3 0.8510 0.8510 0.8510);fill-opacity:1;"/>
<path d="M215.147 44.3807L215.349 45.0005H216.001L215.473 45.3836L215.675 46.0034L215.147 45.6203L214.62 46.0034L214.822 45.3836L214.294 45.0005H214.946L215.147 44.3807Z" fill="#D9D9D9" style="fill:#D9D9D9;fill:color(display-p3 0.8510 0.8510 0.8510);fill-opacity:1;"/>
<path d="M163.039 11.97L163.24 12.5898H163.892L163.365 12.9728L163.566 13.5926L163.039 13.2096L162.512 13.5926L162.713 12.9728L162.186 12.5898H162.838L163.039 11.97Z" fill="#D9D9D9" style="fill:#D9D9D9;fill:color(display-p3 0.8510 0.8510 0.8510);fill-opacity:1;"/>
<path d="M355.285 11.3892L355.486 12.009H356.138L355.611 12.392L355.812 13.0118L355.285 12.6287L354.758 13.0118L354.959 12.392L354.432 12.009H355.084L355.285 11.3892Z" fill="#D9D9D9" style="fill:#D9D9D9;fill:color(display-p3 0.8510 0.8510 0.8510);fill-opacity:1;"/>
<path d="M258.415 9.7489L258.616 10.3687H259.268L258.741 10.7517L258.942 11.3715L258.415 10.9885L257.888 11.3715L258.089 10.7517L257.562 10.3687H258.214L258.415 9.7489Z" fill="#D9D9D9" style="fill:#D9D9D9;fill:color(display-p3 0.8510 0.8510 0.8510);fill-opacity:1;"/>
<path d="M88.4912 9.21912L88.6926 9.83891H89.3443L88.8171 10.222L89.0184 10.8418L88.4912 10.4587L87.964 10.8418L88.1654 10.222L87.6381 9.83891H88.2898L88.4912 9.21912Z" fill="#D9D9D9" style="fill:#D9D9D9;fill:color(display-p3 0.8510 0.8510 0.8510);fill-opacity:1;"/>
<g filter="url(#filter8_f_302_2396)">
<path d="M50.2207 16.8737L50.4221 17.4935H51.0738L50.5465 17.8765L50.7479 18.4963L50.2207 18.1132L49.6935 18.4963L49.8949 17.8765L49.3676 17.4935H50.0193L50.2207 16.8737Z" fill="#D9D9D9" style="fill:#D9D9D9;fill:color(display-p3 0.8510 0.8510 0.8510);fill-opacity:1;"/>
</g>
<path d="M280.737 8.63831L280.938 9.2581H281.59L281.063 9.64115L281.264 10.2609L280.737 9.87789L280.21 10.2609L280.411 9.64115L279.884 9.2581H280.536L280.737 8.63831Z" fill="#D9D9D9" style="fill:#D9D9D9;fill:color(display-p3 0.8510 0.8510 0.8510);fill-opacity:1;"/>
<path d="M183.867 6.99805L184.069 7.61784H184.72L184.193 8.00089L184.394 8.62069L183.867 8.23763L183.34 8.62069L183.541 8.00089L183.014 7.61784H183.666L183.867 6.99805Z" fill="#D9D9D9" style="fill:#D9D9D9;fill:color(display-p3 0.8510 0.8510 0.8510);fill-opacity:1;"/>
<path d="M129.964 7.42505L130.166 8.04484H130.817L130.29 8.42789L130.492 9.04769L129.964 8.66463L129.437 9.04769L129.639 8.42789L129.111 8.04484H129.763L129.964 7.42505Z" fill="#D9D9D9" style="fill:#D9D9D9;fill:color(display-p3 0.8510 0.8510 0.8510);fill-opacity:1;"/>
<g filter="url(#filter9_f_302_2396)">
<path d="M322.21 6.84424L322.412 7.46403H323.063L322.536 7.84708L322.737 8.46688L322.21 8.08382L321.683 8.46688L321.884 7.84708L321.357 7.46403H322.009L322.21 6.84424Z" fill="#D9D9D9" style="fill:#D9D9D9;fill:color(display-p3 0.8510 0.8510 0.8510);fill-opacity:1;"/>
</g>
<path d="M225.34 5.20398L225.542 5.82377H226.193L225.666 6.20683L225.868 6.82662L225.34 6.44357L224.813 6.82662L225.014 6.20683L224.487 5.82377H225.139L225.34 5.20398Z" fill="#D9D9D9" style="fill:#D9D9D9;fill:color(display-p3 0.8510 0.8510 0.8510);fill-opacity:1;"/>
<path d="M223.546 38.0419L223.748 38.6617H224.399L223.872 39.0447L224.074 39.6645L223.546 39.2815L223.019 39.6645L223.221 39.0447L222.693 38.6617H223.345L223.546 38.0419Z" fill="#D9D9D9" style="fill:#D9D9D9;fill:color(display-p3 0.8510 0.8510 0.8510);fill-opacity:1;"/>
<path d="M48.8652 -0.810059L49.0666 -0.190266H49.7183L49.1911 0.192787L49.3925 0.81258L48.8652 0.429527L48.338 0.81258L48.5394 0.192787L48.0122 -0.190266H48.6639L48.8652 -0.810059Z" fill="#D9D9D9" style="fill:#D9D9D9;fill:color(display-p3 0.8510 0.8510 0.8510);fill-opacity:1;"/>
<path d="M10.5947 6.84448L10.7961 7.46428H11.4478L10.9206 7.84733L11.122 8.46712L10.5947 8.08407L10.0675 8.46712L10.2689 7.84733L9.74165 7.46428H10.3933L10.5947 6.84448Z" fill="#D9D9D9" style="fill:#D9D9D9;fill:color(display-p3 0.8510 0.8510 0.8510);fill-opacity:1;"/>
<path d="M241.111 -1.39087L241.312 -0.771076H241.964L241.437 -0.388023L241.638 0.23177L241.111 -0.151283L240.584 0.23177L240.785 -0.388023L240.258 -0.771076H240.91L241.111 -1.39087Z" fill="#D9D9D9" style="fill:#D9D9D9;fill:color(display-p3 0.8510 0.8510 0.8510);fill-opacity:1;"/>
<path d="M95.1812 21.1023L95.3825 21.7221H96.0342L95.507 22.1051L95.7084 22.7249L95.1812 22.3419L94.6539 22.7249L94.8553 22.1051L94.3281 21.7221H94.9798L95.1812 21.1023Z" fill="#D9D9D9" style="fill:#D9D9D9;fill:color(display-p3 0.8510 0.8510 0.8510);fill-opacity:1;"/>
<path d="M287.427 20.5215L287.628 21.1413H288.28L287.753 21.5243L287.954 22.1441L287.427 21.7611L286.9 22.1441L287.101 21.5243L286.574 21.1413H287.226L287.427 20.5215Z" fill="#D9D9D9" style="fill:#D9D9D9;fill:color(display-p3 0.8510 0.8510 0.8510);fill-opacity:1;"/>
<path d="M190.557 18.8812L190.759 19.501H191.41L190.883 19.8841L191.084 20.5039L190.557 20.1208L190.03 20.5039L190.231 19.8841L189.704 19.501H190.356L190.557 18.8812Z" fill="#D9D9D9" style="fill:#D9D9D9;fill:color(display-p3 0.8510 0.8510 0.8510);fill-opacity:1;"/>
<path d="M188.763 51.7191L188.965 52.3389H189.616L189.089 52.722L189.29 53.3418L188.763 52.9587L188.236 53.3418L188.437 52.722L187.91 52.3389H188.562L188.763 51.7191Z" fill="#D9D9D9" style="fill:#D9D9D9;fill:color(display-p3 0.8510 0.8510 0.8510);fill-opacity:1;"/>
<path d="M52.0681 5.05054L52.2695 5.67033H52.9212L52.394 6.05338L52.5953 6.67318L52.0681 6.29012L51.5409 6.67318L51.7423 6.05338L51.215 5.67033H51.8667L52.0681 5.05054Z" fill="#D9D9D9" style="fill:#D9D9D9;fill:color(display-p3 0.8510 0.8510 0.8510);fill-opacity:1;"/>
<path d="M136.654 19.3083L136.856 19.9281H137.507L136.98 20.3112L137.182 20.931L136.654 20.5479L136.127 20.931L136.328 20.3112L135.801 19.9281H136.453L136.654 19.3083Z" fill="#D9D9D9" style="fill:#D9D9D9;fill:color(display-p3 0.8510 0.8510 0.8510);fill-opacity:1;"/>
<path d="M328.9 18.7275L329.102 19.3473H329.753L329.226 19.7304L329.427 20.3502L328.9 19.9671L328.373 20.3502L328.574 19.7304L328.047 19.3473H328.699L328.9 18.7275Z" fill="#D9D9D9" style="fill:#D9D9D9;fill:color(display-p3 0.8510 0.8510 0.8510);fill-opacity:1;"/>
<path d="M232.03 17.0873L232.232 17.7071H232.883L232.356 18.0901L232.558 18.7099L232.03 18.3269L231.503 18.7099L231.704 18.0901L231.177 17.7071H231.829L232.03 17.0873Z" fill="#D9D9D9" style="fill:#D9D9D9;fill:color(display-p3 0.8510 0.8510 0.8510);fill-opacity:1;"/>
<g filter="url(#filter10_f_302_2396)">
<path d="M230.236 49.9252L230.438 50.545H231.089L230.562 50.928L230.764 51.5478L230.236 51.1648L229.709 51.5478L229.91 50.928L229.383 50.545H230.035L230.236 49.9252Z" fill="#D9D9D9" style="fill:#D9D9D9;fill:color(display-p3 0.8510 0.8510 0.8510);fill-opacity:1;"/>
</g>
<path d="M27.8982 5.84497L28.0996 6.46476H28.7513L28.224 6.84782L28.4254 7.46761L27.8982 7.08456L27.371 7.46761L27.5723 6.84782L27.0451 6.46476H27.6968L27.8982 5.84497Z" fill="#D9D9D9" style="fill:#D9D9D9;fill:color(display-p3 0.8510 0.8510 0.8510);fill-opacity:1;"/>
<path d="M112.484 20.1028L112.686 20.7226H113.337L112.81 21.1056L113.012 21.7254L112.484 21.3424L111.957 21.7254L112.159 21.1056L111.631 20.7226H112.283L112.484 20.1028Z" fill="#D9D9D9" style="fill:#D9D9D9;fill:color(display-p3 0.8510 0.8510 0.8510);fill-opacity:1;"/>
<path d="M304.73 19.522L304.932 20.1418H305.583L305.056 20.5248L305.257 21.1446L304.73 20.7616L304.203 21.1446L304.404 20.5248L303.877 20.1418H304.529L304.73 19.522Z" fill="#D9D9D9" style="fill:#D9D9D9;fill:color(display-p3 0.8510 0.8510 0.8510);fill-opacity:1;"/>
<path d="M207.86 17.8817L208.062 18.5015H208.713L208.186 18.8846L208.388 19.5044L207.86 19.1213L207.333 19.5044L207.535 18.8846L207.007 18.5015H207.659L207.86 17.8817Z" fill="#D9D9D9" style="fill:#D9D9D9;fill:color(display-p3 0.8510 0.8510 0.8510);fill-opacity:1;"/>
<path d="M206.066 50.7196L206.268 51.3394H206.919L206.392 51.7225L206.594 52.3422L206.066 51.9592L205.539 52.3422L205.741 51.7225L205.213 51.3394H205.865L206.066 50.7196Z" fill="#D9D9D9" style="fill:#D9D9D9;fill:color(display-p3 0.8510 0.8510 0.8510);fill-opacity:1;"/>
<path d="M69.3716 4.05103L69.573 4.67082H70.2247L69.6974 5.05387L69.8988 5.67366L69.3716 5.29061L68.8444 5.67366L69.0457 5.05387L68.5185 4.67082H69.1702L69.3716 4.05103Z" fill="#D9D9D9" style="fill:#D9D9D9;fill:color(display-p3 0.8510 0.8510 0.8510);fill-opacity:1;"/>
<path d="M153.958 18.3088L154.159 18.9286H154.811L154.284 19.3117L154.485 19.9315L153.958 19.5484L153.431 19.9315L153.632 19.3117L153.105 18.9286H153.757L153.958 18.3088Z" fill="#D9D9D9" style="fill:#D9D9D9;fill:color(display-p3 0.8510 0.8510 0.8510);fill-opacity:1;"/>
<path d="M346.204 17.728L346.405 18.3478H347.057L346.53 18.7309L346.731 19.3507L346.204 18.9676L345.677 19.3507L345.878 18.7309L345.351 18.3478H346.002L346.204 17.728Z" fill="#D9D9D9" style="fill:#D9D9D9;fill:color(display-p3 0.8510 0.8510 0.8510);fill-opacity:1;"/>
<path d="M249.334 16.0878L249.535 16.7076H250.187L249.66 17.0906L249.861 17.7104L249.334 17.3274L248.807 17.7104L249.008 17.0906L248.481 16.7076H249.133L249.334 16.0878Z" fill="#D9D9D9" style="fill:#D9D9D9;fill:color(display-p3 0.8510 0.8510 0.8510);fill-opacity:1;"/>
<path d="M247.54 48.9257L247.741 49.5455H248.393L247.866 49.9285L248.067 50.5483L247.54 50.1652L247.013 50.5483L247.214 49.9285L246.687 49.5455H247.339L247.54 48.9257Z" fill="#D9D9D9" style="fill:#D9D9D9;fill:color(display-p3 0.8510 0.8510 0.8510);fill-opacity:1;"/>
<path d="M72.8586 10.0735L73.06 10.6933H73.7117L73.1845 11.0763L73.3859 11.6961L72.8586 11.3131L72.3314 11.6961L72.5328 11.0763L72.0056 10.6933H72.6573L72.8586 10.0735Z" fill="#D9D9D9" style="fill:#D9D9D9;fill:color(display-p3 0.8510 0.8510 0.8510);fill-opacity:1;"/>
<path d="M34.5881 17.728L34.7895 18.3478H35.4412L34.914 18.7309L35.1154 19.3507L34.5881 18.9676L34.0609 19.3507L34.2623 18.7309L33.7351 18.3478H34.3868L34.5881 17.728Z" fill="#D9D9D9" style="fill:#D9D9D9;fill:color(display-p3 0.8510 0.8510 0.8510);fill-opacity:1;"/>
<path d="M265.104 9.49268L265.306 10.1125H265.958L265.43 10.4955L265.632 11.1153L265.104 10.7323L264.577 11.1153L264.779 10.4955L264.251 10.1125H264.903L265.104 9.49268Z" fill="#D9D9D9" style="fill:#D9D9D9;fill:color(display-p3 0.8510 0.8510 0.8510);fill-opacity:1;"/>
<g filter="url(#filter11_f_302_2396)">
<path d="M168.235 7.85242L168.436 8.47221H169.088L168.56 8.85526L168.762 9.47506L168.235 9.092L167.707 9.47506L167.909 8.85526L167.382 8.47221H168.033L168.235 7.85242Z" fill="#D9D9D9" style="fill:#D9D9D9;fill:color(display-p3 0.8510 0.8510 0.8510);fill-opacity:1;"/>
</g>
<path d="M360.48 7.27161L360.682 7.8914H361.334L360.806 8.27445L361.008 8.89425L360.48 8.51119L359.953 8.89425L360.155 8.27445L359.627 7.8914H360.279L360.48 7.27161Z" fill="#D9D9D9" style="fill:#D9D9D9;fill:color(display-p3 0.8510 0.8510 0.8510);fill-opacity:1;"/>
<path d="M119.174 31.9858L119.376 32.6056H120.027L119.5 32.9887L119.702 33.6085L119.174 33.2254L118.647 33.6085L118.848 32.9887L118.321 32.6056H118.973L119.174 31.9858Z" fill="#D9D9D9" style="fill:#D9D9D9;fill:color(display-p3 0.8510 0.8510 0.8510);fill-opacity:1;"/>
<path d="M214.55 29.7648L214.752 30.3846H215.403L214.876 30.7676L215.078 31.3874L214.55 31.0044L214.023 31.3874L214.224 30.7676L213.697 30.3846H214.349L214.55 29.7648Z" fill="#D9D9D9" style="fill:#D9D9D9;fill:color(display-p3 0.8510 0.8510 0.8510);fill-opacity:1;"/>
<path d="M212.756 62.6027L212.958 63.2225H213.609L213.082 63.6055L213.284 64.2253L212.756 63.8422L212.229 64.2253L212.431 63.6055L211.903 63.2225H212.555L212.756 62.6027Z" fill="#D9D9D9" style="fill:#D9D9D9;fill:color(display-p3 0.8510 0.8510 0.8510);fill-opacity:1;"/>
<path d="M114.332 8.27954L114.533 8.89933H115.185L114.658 9.28239L114.859 9.90218L114.332 9.51913L113.805 9.90218L114.006 9.28239L113.479 8.89933H114.131L114.332 8.27954Z" fill="#D9D9D9" style="fill:#D9D9D9;fill:color(display-p3 0.8510 0.8510 0.8510);fill-opacity:1;"/>
<path d="M76.0615 15.9341L76.2629 16.5539H76.9146L76.3874 16.9369L76.5888 17.5567L76.0615 17.1737L75.5343 17.5567L75.7357 16.9369L75.2085 16.5539H75.8601L76.0615 15.9341Z" fill="#D9D9D9" style="fill:#D9D9D9;fill:color(display-p3 0.8510 0.8510 0.8510);fill-opacity:1;"/>
<path d="M306.578 7.69873L306.779 8.31852H307.431L306.904 8.70158L307.105 9.32137L306.578 8.93832L306.051 9.32137L306.252 8.70158L305.725 8.31852H306.376L306.578 7.69873Z" fill="#D9D9D9" style="fill:#D9D9D9;fill:color(display-p3 0.8510 0.8510 0.8510);fill-opacity:1;"/>
<path d="M209.708 6.05847L209.909 6.67826H210.561L210.034 7.06132L210.235 7.68111L209.708 7.29806L209.181 7.68111L209.382 7.06132L208.855 6.67826H209.507L209.708 6.05847Z" fill="#D9D9D9" style="fill:#D9D9D9;fill:color(display-p3 0.8510 0.8510 0.8510);fill-opacity:1;"/>
<path d="M207.914 38.8964L208.115 39.5162H208.767L208.24 39.8992L208.441 40.519L207.914 40.1359L207.387 40.519L207.588 39.8992L207.061 39.5162H207.713L207.914 38.8964Z" fill="#D9D9D9" style="fill:#D9D9D9;fill:color(display-p3 0.8510 0.8510 0.8510);fill-opacity:1;"/>
<path d="M160.648 30.1919L160.849 30.8117H161.501L160.974 31.1947L161.175 31.8145L160.648 31.4315L160.121 31.8145L160.322 31.1947L159.795 30.8117H160.447L160.648 30.1919Z" fill="#D9D9D9" style="fill:#D9D9D9;fill:color(display-p3 0.8510 0.8510 0.8510);fill-opacity:1;"/>
<path d="M256.024 27.9708L256.225 28.5906H256.877L256.35 28.9737L256.551 29.5935L256.024 29.2104L255.497 29.5935L255.698 28.9737L255.171 28.5906H255.823L256.024 27.9708Z" fill="#D9D9D9" style="fill:#D9D9D9;fill:color(display-p3 0.8510 0.8510 0.8510);fill-opacity:1;"/>
<path d="M254.23 60.8087L254.431 61.4285H255.083L254.556 61.8116L254.757 62.4314L254.23 62.0483L253.703 62.4314L253.904 61.8116L253.377 61.4285H254.029L254.23 60.8087Z" fill="#D9D9D9" style="fill:#D9D9D9;fill:color(display-p3 0.8510 0.8510 0.8510);fill-opacity:1;"/>
<g filter="url(#filter12_f_302_2396)">
<path d="M331.797 6.07288C333.591 6.19641 335.295 6.61415 336.864 7.27533C328.781 6.94653 321.856 13.1115 321.296 21.2336C320.737 29.3552 326.751 36.4107 334.802 37.1939C333.157 37.6334 331.413 37.8148 329.62 37.6914C320.889 37.09 314.299 29.5243 314.9 20.7932C315.501 12.062 323.066 5.47173 331.797 6.07288Z" fill="#D9D9D9" style="fill:#D9D9D9;fill:color(display-p3 0.8510 0.8510 0.8510);fill-opacity:1;"/>
</g>
<path d="M331.733 7.52017C333.526 7.64369 335.229 8.06073 336.798 8.72157C328.715 8.39348 321.79 14.5594 321.231 22.6812C320.672 30.8029 326.686 37.858 334.738 38.6409C333.093 39.0806 331.349 39.2621 329.555 39.1387C320.824 38.5374 314.234 30.9718 314.835 22.2408C315.436 13.5096 323.002 6.91892 331.733 7.52017Z" fill="#D9D9D9" style="fill:#D9D9D9;fill:color(display-p3 0.8510 0.8510 0.8510);fill-opacity:1;"/>
<g filter="url(#filter13_f_302_2396)">
<circle cx="36.0823" cy="169.218" r="19.1207" fill="#AC7119" style="fill:#AC7119;fill:color(display-p3 0.6731 0.4435 0.0990);fill-opacity:1;"/>
</g>
<g filter="url(#filter14_f_302_2396)">
<circle cx="315.807" cy="171.243" r="17.6995" fill="#AC7119" style="fill:#AC7119;fill:color(display-p3 0.6731 0.4435 0.0990);fill-opacity:1;"/>
</g>
</g>
</g>
<defs>
<filter id="filter0_f_302_2396" x="-90.4099" y="-16.943" width="610.963" height="261.797" filterUnits="userSpaceOnUse" color-interpolation-filters="sRGB">
<feFlood flood-opacity="0" result="BackgroundImageFix"/>
<feBlend mode="normal" in="SourceGraphic" in2="BackgroundImageFix" result="shape"/>
<feGaussianBlur stdDeviation="40.2" result="effect1_foregroundBlur_302_2396"/>
</filter>
<filter id="filter1_n_302_2396" x="-38.9128" y="38.5063" width="493.112" height="83.6068" filterUnits="userSpaceOnUse" color-interpolation-filters="sRGB">
<feFlood flood-opacity="0" result="BackgroundImageFix"/>
<feBlend mode="normal" in="SourceGraphic" in2="BackgroundImageFix" result="shape"/>
<feTurbulence type="fractalNoise" baseFrequency="2 2" stitchTiles="stitch" numOctaves="3" result="noise" seed="8412" />
<feColorMatrix in="noise" type="luminanceToAlpha" result="alphaNoise" />
<feComponentTransfer in="alphaNoise" result="coloredNoise1">
<feFuncA type="discrete" tableValues="1 1 1 1 1 1 1 1 1 1 1 1 1 1 1 1 1 1 1 1 1 1 1 1 1 1 1 1 1 1 1 1 1 1 1 1 1 1 1 1 1 1 1 1 1 1 1 1 1 1 1 0 0 0 0 0 0 0 0 0 0 0 0 0 0 0 0 0 0 0 0 0 0 0 0 0 0 0 0 0 0 0 0 0 0 0 0 0 0 0 0 0 0 0 0 0 0 0 0 0 "/>
</feComponentTransfer>
<feComposite operator="in" in2="shape" in="coloredNoise1" result="noise1Clipped" />
<feFlood flood-color="rgba(0, 0, 0, 0.25)" result="color1Flood" />
<feComposite operator="in" in2="noise1Clipped" in="color1Flood" result="color1" />
<feMerge result="effect1_noise_302_2396">
<feMergeNode in="shape" />
<feMergeNode in="color1" />
</feMerge>
</filter>
<filter id="filter2_n_302_2396" x="-63.4252" y="80.0341" width="493.112" height="109.315" filterUnits="userSpaceOnUse" color-interpolation-filters="sRGB">
<feFlood flood-opacity="0" result="BackgroundImageFix"/>
<feBlend mode="normal" in="SourceGraphic" in2="BackgroundImageFix" result="shape"/>
<feTurbulence type="fractalNoise" baseFrequency="2 2" stitchTiles="stitch" numOctaves="3" result="noise" seed="8412" />
<feColorMatrix in="noise" type="luminanceToAlpha" result="alphaNoise" />
<feComponentTransfer in="alphaNoise" result="coloredNoise1">
<feFuncA type="discrete" tableValues="1 1 1 1 1 1 1 1 1 1 1 1 1 1 1 1 1 1 1 1 1 1 1 1 1 1 1 1 1 1 1 1 1 1 1 1 1 1 1 1 1 1 1 1 1 1 1 1 1 1 1 0 0 0 0 0 0 0 0 0 0 0 0 0 0 0 0 0 0 0 0 0 0 0 0 0 0 0 0 0 0 0 0 0 0 0 0 0 0 0 0 0 0 0 0 0 0 0 0 0 "/>
</feComponentTransfer>
<feComposite operator="in" in2="shape" in="coloredNoise1" result="noise1Clipped" />
<feFlood flood-color="rgba(0, 0, 0, 0.25)" result="color1Flood" />
<feComposite operator="in" in2="noise1Clipped" in="color1Flood" result="color1" />
<feMerge result="effect1_noise_302_2396">
<feMergeNode in="shape" />
<feMergeNode in="color1" />
</feMerge>
</filter>
<filter id="filter3_f_302_2396" x="73.6671" y="92.7324" width="90.74" height="90.7401" filterUnits="userSpaceOnUse" color-interpolation-filters="sRGB">
<feFlood flood-opacity="0" result="BackgroundImageFix"/>
<feBlend mode="normal" in="SourceGraphic" in2="BackgroundImageFix" result="shape"/>
<feGaussianBlur stdDeviation="17.2214" result="effect1_foregroundBlur_302_2396"/>
</filter>
<filter id="filter4_f_302_2396" x="198.106" y="35.9426" width="3.90605" height="3.82262" filterUnits="userSpaceOnUse" color-interpolation-filters="sRGB">
<feFlood flood-opacity="0" result="BackgroundImageFix"/>
<feBlend mode="normal" in="SourceGraphic" in2="BackgroundImageFix" result="shape"/>
<feGaussianBlur stdDeviation="0.55" result="effect1_foregroundBlur_302_2396"/>
</filter>
<filter id="filter5_f_302_2396" x="145.997" y="3.53184" width="3.90605" height="3.82262" filterUnits="userSpaceOnUse" color-interpolation-filters="sRGB">
<feFlood flood-opacity="0" result="BackgroundImageFix"/>
<feBlend mode="normal" in="SourceGraphic" in2="BackgroundImageFix" result="shape"/>
<feGaussianBlur stdDeviation="0.55" result="effect1_foregroundBlur_302_2396"/>
</filter>
<filter id="filter6_f_302_2396" x="241.373" y="1.31077" width="3.90605" height="3.82262" filterUnits="userSpaceOnUse" color-interpolation-filters="sRGB">
<feFlood flood-opacity="0" result="BackgroundImageFix"/>
<feBlend mode="normal" in="SourceGraphic" in2="BackgroundImageFix" result="shape"/>
<feGaussianBlur stdDeviation="0.55" result="effect1_foregroundBlur_302_2396"/>
</filter>
<filter id="filter7_f_302_2396" x="35.0262" y="-1.5939" width="3.90605" height="3.82262" filterUnits="userSpaceOnUse" color-interpolation-filters="sRGB">
<feFlood flood-opacity="0" result="BackgroundImageFix"/>
<feBlend mode="normal" in="SourceGraphic" in2="BackgroundImageFix" result="shape"/>
<feGaussianBlur stdDeviation="0.55" result="effect1_foregroundBlur_302_2396"/>
</filter>
<filter id="filter8_f_302_2396" x="48.2677" y="15.7737" width="3.90605" height="3.82262" filterUnits="userSpaceOnUse" color-interpolation-filters="sRGB">
<feFlood flood-opacity="0" result="BackgroundImageFix"/>
<feBlend mode="normal" in="SourceGraphic" in2="BackgroundImageFix" result="shape"/>
<feGaussianBlur stdDeviation="0.55" result="effect1_foregroundBlur_302_2396"/>
</filter>
<filter id="filter9_f_302_2396" x="320.257" y="5.74424" width="3.90605" height="3.82262" filterUnits="userSpaceOnUse" color-interpolation-filters="sRGB">
<feFlood flood-opacity="0" result="BackgroundImageFix"/>
<feBlend mode="normal" in="SourceGraphic" in2="BackgroundImageFix" result="shape"/>
<feGaussianBlur stdDeviation="0.55" result="effect1_foregroundBlur_302_2396"/>
</filter>
<filter id="filter10_f_302_2396" x="228.283" y="48.8252" width="3.90605" height="3.82262" filterUnits="userSpaceOnUse" color-interpolation-filters="sRGB">
<feFlood flood-opacity="0" result="BackgroundImageFix"/>
<feBlend mode="normal" in="SourceGraphic" in2="BackgroundImageFix" result="shape"/>
<feGaussianBlur stdDeviation="0.55" result="effect1_foregroundBlur_302_2396"/>
</filter>
<filter id="filter11_f_302_2396" x="166.282" y="6.75242" width="3.90605" height="3.82262" filterUnits="userSpaceOnUse" color-interpolation-filters="sRGB">
<feFlood flood-opacity="0" result="BackgroundImageFix"/>
<feBlend mode="normal" in="SourceGraphic" in2="BackgroundImageFix" result="shape"/>
<feGaussianBlur stdDeviation="0.55" result="effect1_foregroundBlur_302_2396"/>
</filter>
<filter id="filter12_f_302_2396" x="302.847" y="-5.98027" width="46.0324" height="55.7246" filterUnits="userSpaceOnUse" color-interpolation-filters="sRGB">
<feFlood flood-opacity="0" result="BackgroundImageFix"/>
<feBlend mode="normal" in="SourceGraphic" in2="BackgroundImageFix" result="shape"/>
<feGaussianBlur stdDeviation="6.00753" result="effect1_foregroundBlur_302_2396"/>
</filter>
<filter id="filter13_f_302_2396" x="-43.307" y="89.8288" width="158.779" height="158.779" filterUnits="userSpaceOnUse" color-interpolation-filters="sRGB">
<feFlood flood-opacity="0" result="BackgroundImageFix"/>
<feBlend mode="normal" in="SourceGraphic" in2="BackgroundImageFix" result="shape"/>
<feGaussianBlur stdDeviation="30.1343" result="effect1_foregroundBlur_302_2396"/>
</filter>
<filter id="filter14_f_302_2396" x="242.318" y="97.7545" width="146.976" height="146.976" filterUnits="userSpaceOnUse" color-interpolation-filters="sRGB">
<feFlood flood-opacity="0" result="BackgroundImageFix"/>
<feBlend mode="normal" in="SourceGraphic" in2="BackgroundImageFix" result="shape"/>
<feGaussianBlur stdDeviation="27.8944" result="effect1_foregroundBlur_302_2396"/>
</filter>
<linearGradient id="paint0_linear_302_2396" x1="196.5" y1="-61.8885" x2="196.5" y2="166" gradientUnits="userSpaceOnUse">
<stop stop-color="#131E15" style="stop-color:#131E15;stop-color:color(display-p3 0.0746 0.1189 0.0814);stop-opacity:1;"/>
<stop offset="0.364022" stop-color="#152D1E" style="stop-color:#152D1E;stop-color:color(display-p3 0.0829 0.1760 0.1195);stop-opacity:1;"/>
<stop offset="0.719832" stop-color="#243421" style="stop-color:#243421;stop-color:color(display-p3 0.1403 0.2041 0.1301);stop-opacity:1;"/>
</linearGradient>
<clipPath id="clip0_302_2396">
<rect width="393" height="170" fill="white" style="fill:white;fill-opacity:1;"/>
</clipPath>
<clipPath id="clip1_302_2396">
<rect width="393" height="166" fill="white" style="fill:white;fill-opacity:1;" transform="translate(0 -39)"/>
</clipPath>
</defs>
</svg>
